<svg xmlns="http://www.w3.org/2000/svg" width="1070.802" height="240" viewBox="0 0 1070.802 240"><circle cx="18.557" cy="43.151" r="12.583" fill="#c9252c"/><path d="M149.052 119.791a47.876 47.876 0 0 1 5.823 5.128l13.078-12.62a67.801 67.801 0 0 0-11.955-9.857 79.622 79.622 0 0 0 2.704-20.6c0-40.079-29.733-73.226-68.349-78.576l-2.63 18.783c29.379 4.079 51.99 29.29 51.99 59.792 0 4.3-.444 8.498-1.316 12.547a67.186 67.186 0 0 0-18.916-2.69c-29.63 0-54.782 19.123-63.812 45.694-21.561-9.207-36.68-30.62-36.68-55.55 0-3.34.267-6.621.799-9.813L1.049 68.94A79.02 79.02 0 0 0 0 81.841c0 34.27 21.739 63.472 52.182 74.57-.045.887-.06 1.76-.06 2.646 0 37.196 30.148 67.344 67.359 67.344 18.177 0 34.684-7.197 46.788-18.916l-11.823-13.892c-8.896 9.03-21.28 14.63-34.965 14.63-26.63 0-48.31-21.147-49.152-47.555 2.956.34 5.97.517 9.015.517 30.073 0 56.245-16.729 69.708-41.394zm-29.571-9.916c4.315 0 8.483.547 12.473 1.596-10.36 18.355-30.044 30.739-52.61 30.739-2.01 0-4.005-.104-5.97-.296 6.96-18.709 24.974-32.039 46.107-32.039zm129.47 32.335h18.879V3.266h-18.878V142.21zM436.015 23.305C423.009 8.985 404.255 0 383.389 0c-39.266 0-71.113 31.847-71.113 71.112s31.847 71.098 71.113 71.098c20.866 0 39.62-8.985 52.625-23.29v23.29h19.167V0h-19.167v23.305zm0 62.497c-5.527 23.955-26.985 41.807-52.625 41.807-29.837 0-54.03-24.177-54.03-54.014 0-29.837 24.193-54.029 54.03-54.029 25.64 0 47.098 17.867 52.625 41.822a53.573 53.573 0 0 1 1.389 12.207c0 4.197-.473 8.276-1.39 12.207zm202.608-14.69c0-2.985-.178-5.926-.547-8.807C633.745 27.177 603.79 0 567.509 0c-36.28 0-66.22 27.177-70.55 62.305a69.257 69.257 0 0 0-.547 8.807c0 2.97.177 5.912.547 8.793a70.048 70.048 0 0 0 3.073 13.67c9.4 28.256 36.059 48.635 67.477 48.635 31.419 0 58.078-20.38 67.492-48.635h-18.547c-8.497 18.517-27.221 31.374-48.945 31.374-21.709 0-40.433-12.857-48.945-31.374a52.798 52.798 0 0 1-4.182-13.67h123.693a69.2 69.2 0 0 0 .547-8.793zm-124.24-8.807c4.197-25.552 26.394-45.044 53.127-45.044 26.749 0 48.93 19.492 53.128 45.044H514.382z" fill="#00aeef"/><path d="M201.185 226.4h4.577V3.267h-4.577v223.135zm76.29-24.94a14.744 14.744 0 0 0-3.775-2.3 55.529 55.529 0 0 0-3.557-1.344 26.86 26.86 0 0 0 2.82-1.345 12.245 12.245 0 0 0 2.82-2.126c.867-.867 1.605-1.952 2.212-3.253.607-1.302.91-2.877.91-4.728 0-2.313-.448-4.28-1.344-5.9a11.133 11.133 0 0 0-3.644-3.948c-1.533-1.01-3.297-1.748-5.292-2.212a27.823 27.823 0 0 0-6.29-.694H248.8v52.923h14.314c2.024 0 4.135-.202 6.334-.608 2.197-.403 4.208-1.17 6.03-2.299 1.821-1.127 3.325-2.674 4.511-4.64 1.185-1.966 1.778-4.483 1.778-7.55 0-2.485-.42-4.524-1.257-6.116-.84-1.59-1.852-2.876-3.037-3.86zm-25.378-24.553h10.238c1.561 0 3.136.13 4.728.39 1.59.26 3.007.753 4.251 1.475a9.272 9.272 0 0 1 3.08 2.906c.81 1.215 1.215 2.777 1.215 4.686 0 1.851-.377 3.413-1.128 4.684a9.624 9.624 0 0 1-3.036 3.167c-1.273.84-2.763 1.446-4.468 1.822-1.708.377-3.544.564-5.51.564h-9.37v-19.694zm22.47 43.25c-2.602 2.053-6.623 3.08-12.06 3.08h-10.41v-23.34h13.1c1.389 0 2.863.204 4.426.608a13.479 13.479 0 0 1 4.294 1.952c1.302.898 2.386 2.054 3.254 3.47.867 1.419 1.301 3.11 1.301 5.076 0 4.05-1.301 7.101-3.904 9.153zm64.29-39.433c-2.489-2.486-5.395-4.453-8.72-5.9-3.327-1.445-6.985-2.168-10.975-2.168-3.991 0-7.65.723-10.975 2.169-3.327 1.446-6.204 3.413-8.633 5.899-2.488 2.488-4.41 5.394-5.77 8.72-1.36 3.326-2.038 6.897-2.038 10.714s.679 7.375 2.038 10.672a26.303 26.303 0 0 0 5.77 8.675c2.429 2.546 5.306 4.527 8.633 5.943 3.325 1.417 6.984 2.126 10.975 2.126 3.99 0 7.648-.71 10.975-2.126 3.325-1.416 6.231-3.397 8.72-5.943 2.428-2.485 4.337-5.378 5.725-8.675s2.082-6.855 2.082-10.672-.694-7.388-2.082-10.715c-1.388-3.325-3.297-6.231-5.726-8.72zm2.689 28.804c-1.215 2.95-2.893 5.51-5.033 7.678-2.14 2.17-4.684 3.891-7.634 5.163-2.95 1.273-6.19 1.908-9.717 1.908-3.471 0-6.68-.635-9.63-1.908-2.95-1.272-5.496-2.993-7.636-5.163-2.14-2.169-3.817-4.728-5.032-7.678-1.214-2.95-1.821-6.073-1.821-9.37 0-3.354.607-6.492 1.821-9.413 1.215-2.92 2.892-5.48 5.032-7.678 2.14-2.198 4.686-3.933 7.636-5.206 2.95-1.271 6.159-1.908 9.63-1.908 3.527 0 6.767.637 9.717 1.908 2.95 1.273 5.494 3.008 7.634 5.206 2.14 2.198 3.818 4.758 5.033 7.678 1.214 2.921 1.822 6.06 1.822 9.413 0 3.297-.608 6.42-1.822 9.37zm38.65-7.375c1.705-.694 2.992-1.358 3.86-1.995 1.562-1.214 2.877-2.732 3.948-4.554 1.07-1.822 1.575-3.976 1.518-6.464.057-2.372-.318-4.54-1.128-6.507a12.441 12.441 0 0 0-3.643-4.946c-1.62-1.271-3.644-2.27-6.074-2.993-2.429-.722-5.206-1.084-8.329-1.084H359.07v52.923h3.297v-22.905h6.42l18.827 22.905h4.425l-19.087-22.991c3.123-.23 5.538-.694 7.244-1.389zm-17.83-1.822v-23.424h7.982c2.95 0 5.436.29 7.462.868 2.024.578 3.672 1.387 4.945 2.428a9.077 9.077 0 0 1 2.646 3.774c.549 1.475.853 3.197.911 5.163-.058 1.908-.464 3.543-1.215 4.901a11.356 11.356 0 0 1-3.036 3.514 12.202 12.202 0 0 1-4.295 2.126c-1.591.434-3.167.65-4.728.65h-10.672zm75.002-20.388a25.123 25.123 0 0 0-8.546-4.771c-3.181-1.041-6.363-1.562-9.543-1.562h-14.055v52.923H418.5c3.296 0 6.578-.52 9.846-1.562a25.91 25.91 0 0 0 8.807-4.815c2.602-2.169 4.713-4.93 6.333-8.286 1.618-3.353 2.429-7.316 2.429-11.886 0-4.568-.795-8.515-2.386-11.842-1.592-3.325-3.644-6.058-6.16-8.199zm3.47 29.759c-1.185 2.893-2.849 5.335-4.988 7.33-2.14 1.996-4.685 3.53-7.635 4.6-2.95 1.07-6.19 1.604-9.716 1.604h-10.065v-46.33h10.065c3.527 0 6.767.522 9.716 1.562 2.95 1.041 5.495 2.56 7.635 4.555 2.14 1.996 3.803 4.425 4.989 7.288 1.185 2.863 1.779 6.088 1.779 9.673 0 3.587-.594 6.826-1.78 9.718zm22.167-9.804h22.47V196.6h-22.47v-19.694h27.242v-3.297h-30.539v52.923h32.709v-3.297h-29.412v-23.338zm33.922 26.635h3.557l6.768-15.703h26.374l6.682 15.703h3.556l-23.512-55.873-23.425 55.873zm11.626-19l11.8-29.585 11.885 29.585h-23.685zm80.338 2.95c0 2.429-.406 4.511-1.216 6.247-.81 1.734-1.894 3.166-3.252 4.294-1.36 1.128-2.95 1.952-4.772 2.473-1.822.52-3.775.78-5.856.78-2.026 0-3.992-.288-5.9-.867-1.909-.578-3.6-1.46-5.075-2.647a13.127 13.127 0 0 1-3.514-4.337c-.868-1.706-1.302-3.688-1.302-5.943V173.61h-3.47v36.44c0 2.949.491 5.523 1.475 7.72.983 2.2 2.327 4.02 4.034 5.466 1.706 1.447 3.73 2.531 6.073 3.254s4.902 1.084 7.679 1.084c2.775 0 5.292-.362 7.548-1.084s4.192-1.807 5.813-3.254c1.618-1.445 2.876-3.267 3.774-5.466.896-2.197 1.345-4.771 1.345-7.72v-36.44h-3.384v36.873zm52.836-36.873h-3.73l-15.358 22.731-16.484-22.731h-3.73l17.785 24.813-19.087 28.11h3.817l17.44-25.68 19.174 25.68h3.73l-20.476-27.763 16.919-25.16zm55.243 1.055c3.279 0 6.995-1.138 9.27-3.499l-3.41-3.367c-1.226 1.269-3.805 2.012-5.773 2.012-3.76 0-6.078-1.924-6.427-4.591h16.833c.832-8.876-3.672-13.336-10.887-13.336-6.995 0-11.456 4.722-11.456 11.281 0 6.908 4.416 11.5 11.85 11.5zm-.22-18.059c3.062 0 5.248 1.4 5.597 4.198h-11.63c.788-2.798 3.149-4.198 6.034-4.198zm6.123-13.554v-.219h-6.297l-3.235 5.947v.262h4.722l4.81-5.99zm21.952 31.7c3.192 0 5.816-.962 8.307-3.41l-3.585-3.499c-1.312 1.312-3.016 1.793-4.722 1.793-3.324 0-6.122-2.186-6.122-6.296 0-3.76 2.624-6.384 6.21-6.384 1.486 0 3.06.569 4.328 1.705l3.367-3.541c-2.361-2.317-4.722-3.192-7.783-3.192-6.252 0-11.456 3.76-11.456 11.412 0 7.652 5.204 11.412 11.456 11.412zm24.313-22.65c-6.865 0-11.15 5.073-11.15 11.238 0 6.209 4.198 11.237 11.193 11.237 6.997 0 11.237-5.028 11.237-11.237 0-6.165-4.416-11.237-11.28-11.237zm.043 17.578c-3.89 0-5.859-3.061-5.859-6.34 0-3.236 2.012-6.384 5.86-6.384 3.584 0 5.859 3.148 5.859 6.384 0 3.279-1.969 6.34-5.86 6.34zm23.266-26.147h-5.291v30.563h5.29v-30.563zm18.627 31.132c3.279 0 6.995-1.138 9.27-3.499l-3.411-3.367c-1.225 1.269-3.804 2.012-5.773 2.012-3.76 0-6.077-1.924-6.426-4.591h16.833c.831-8.876-3.673-13.336-10.887-13.336-6.995 0-11.456 4.722-11.456 11.281 0 6.908 4.416 11.5 11.85 11.5zm-.22-18.059c3.061 0 5.248 1.4 5.597 4.198h-11.63c.787-2.798 3.148-4.198 6.033-4.198zm-87.719 51.3c-1.268-2.229-4.81-3.454-7.083-3.454-6.296 0-10.975 3.848-10.975 11.281 0 7.084 4.765 11.281 11.105 11.281 2.624 0 5.29-.874 6.953-3.454l.35 2.973h4.984V195.97h-5.334v11.937zm-6.602 14.167c-3.41 0-6.122-2.58-6.122-6.34 0-3.892 2.712-6.296 6.122-6.296 3.367 0 6.252 2.536 6.252 6.296 0 3.892-2.885 6.34-6.252 6.34zm30.61-17.752c-6.996 0-11.456 4.722-11.456 11.281 0 6.908 4.416 11.5 11.85 11.5 3.278 0 6.995-1.138 9.269-3.499l-3.41-3.367c-1.225 1.269-3.804 2.012-5.773 2.012-3.76 0-6.077-1.924-6.426-4.591h16.833c.831-8.876-3.673-13.336-10.887-13.336zm-5.86 8.92c.788-2.798 3.15-4.198 6.034-4.198 3.061 0 5.248 1.4 5.597 4.198h-11.63zm61.495-8.57c-2.798 0-5.29.875-7.214 3.936-1.224-2.974-3.804-4.023-6.383-4.023-2.055 0-4.548.787-5.685 2.973l-.394-2.623h-4.94v21.599h5.334V214.99c0-2.842 1.706-5.422 4.59-5.422 2.93 0 4.417 2.58 4.417 5.422v11.543h5.334V214.99c0-2.842 1.794-5.334 4.679-5.334 2.886 0 4.067 2.404 4.067 5.246v11.631h5.334v-11.63c0-6.472-3.017-10.232-9.139-10.232zm33.717 3.28c-1.225-2.143-3.979-3.499-6.865-3.499-6.296-.043-11.236 3.848-11.236 11.281 0 7.564 4.722 11.5 11.105 11.456 2.406-.044 5.771-1.268 6.996-3.804l.263 3.148h5.028v-21.556h-5.116l-.175 2.974zm-6.384 14.34c-3.542 0-6.383-2.448-6.383-6.558 0-4.11 2.841-6.514 6.383-6.514 8.395 0 8.395 13.073 0 13.073zm30.48-17.663c-2.712 0-4.897 1.092-7.084 3.235l-.35-2.93h-4.766v21.6h5.291v-11.019c0-3.279 2.23-6.034 5.509-6.034 3.41 0 5.204 2.493 5.204 5.772v11.281h5.334v-11.325c0-6.777-4.067-10.58-9.138-10.58zm32.882 3.323c-1.225-2.143-3.978-3.499-6.865-3.499-6.296-.043-11.236 3.848-11.236 11.281 0 7.564 4.722 11.5 11.105 11.456 2.406-.044 5.771-1.268 6.996-3.804l.263 3.148h5.028v-21.556h-5.116l-.175 2.974zm-6.384 14.34c-3.542 0-6.383-2.448-6.383-6.558 0-4.11 2.841-6.514 6.383-6.514 8.395 0 8.395 13.073 0 13.073zm35.333-19.5l-2.143 2.71c-1.487-1.005-3.236-1.223-4.94-1.223-6.034 0-10.932 4.197-10.932 10.93 0 6.734 4.198 10.844 10.932 10.844 2.667 0 5.465 1.356 5.465 4.329s-2.406 4.634-5.465 4.634c-3.061 0-5.641-1.836-5.641-4.634h-5.291c0 5.815 4.679 9.619 10.932 9.619 6.252 0 10.8-3.673 10.8-9.62 0-2.754-.875-5.333-4.46-7.127 3.541-1.617 4.547-5.378 4.547-8.045 0-2.36-.613-4.503-2.274-6.383l2.404-3.06-3.934-2.974zm-7.083 18.408c-3.104 0-5.641-2.23-5.641-5.99s2.537-6.078 5.64-6.078c3.06 0 5.597 2.361 5.597 6.077 0 3.717-2.537 5.991-5.596 5.991zm27.023-16.878c-6.995 0-11.456 4.722-11.456 11.281 0 6.908 4.417 11.5 11.85 11.5 3.28 0 6.995-1.138 9.27-3.499l-3.41-3.367c-1.226 1.269-3.805 2.012-5.773 2.012-3.76 0-6.077-1.924-6.427-4.591h16.834c.83-8.876-3.673-13.336-10.888-13.336zm-5.859 8.92c.788-2.798 3.149-4.198 6.034-4.198 3.061 0 5.247 1.4 5.597 4.198h-11.63zm47.27-8.57c-2.799 0-5.29.875-7.215 3.936-1.223-2.974-3.804-4.023-6.383-4.023-2.055 0-4.547.787-5.684 2.973l-.394-2.623h-4.94v21.599h5.334V214.99c0-2.842 1.705-5.422 4.59-5.422 2.93 0 4.416 2.58 4.416 5.422v11.543h5.334V214.99c0-2.842 1.794-5.334 4.68-5.334 2.885 0 4.066 2.404 4.066 5.246v11.631h5.334v-11.63c0-6.472-3.016-10.232-9.138-10.232zm27.289-.35c-6.995 0-11.456 4.722-11.456 11.281 0 6.908 4.416 11.5 11.85 11.5 3.279 0 6.995-1.138 9.27-3.499l-3.41-3.367c-1.226 1.269-3.805 2.012-5.774 2.012-3.759 0-6.077-1.924-6.426-4.591h16.833c.831-8.876-3.673-13.336-10.887-13.336zm-5.86 8.92c.788-2.798 3.15-4.198 6.034-4.198 3.061 0 5.248 1.4 5.597 4.198h-11.63zm35.158-8.613c-2.712 0-4.897 1.092-7.083 3.235l-.351-2.93h-4.765v21.6h5.29v-11.019c0-3.279 2.23-6.034 5.509-6.034 3.41 0 5.204 2.493 5.204 5.772v11.281h5.334v-11.325c0-6.777-4.067-10.58-9.138-10.58zm25.32 17.358c-1.662 0-2.798-1.006-2.798-3.06v-9.314h5.99v-4.591h-5.947V198.9l-5.334.568v5.553h-4.023v4.59h4.023v9.314c0 5.378 3.061 8.045 7.739 7.87 1.617-.043 2.886-.306 4.416-.918l-1.487-4.547c-.786.394-1.749.656-2.579.656zM839.73 171.21l.35 2.93h4.766v-21.6h-5.29v11.019c0 3.278-2.23 6.034-5.51 6.034-3.41 0-5.203-2.493-5.203-5.772V152.54h-5.334v11.325c0 6.69 3.76 10.58 8.919 10.58 3.017 0 5.072-1.049 7.302-3.235zm19.634-14.167c3.41 0 5.205 2.493 5.205 5.772v11.28h5.333v-11.324c0-6.777-4.066-10.58-9.138-10.58-2.711 0-4.896 1.092-7.083 3.235l-.35-2.93h-4.766v21.6h5.29v-11.019c0-3.279 2.23-6.034 5.51-6.034zm13.778-10.58c0 4.153 6.296 4.153 6.296 0 0-4.154-6.296-4.154-6.296 0zm.48 27.633h5.335v-21.643h-5.334v21.643zm22.43.087l9.184-21.686h-5.816l-2.973 7.214-3.28 9.007-3.323-9.095-2.973-7.126h-5.816l9.227 21.686h5.77zm31.048-3.017l-3.41-3.367c-1.226 1.269-3.805 2.012-5.773 2.012-3.76 0-6.077-1.924-6.427-4.591h16.834c.83-8.876-3.673-13.336-10.888-13.336-6.995 0-11.456 4.722-11.456 11.281 0 6.908 4.417 11.5 11.85 11.5 3.28 0 6.995-1.138 9.27-3.499zm-9.489-14.56c3.061 0 5.247 1.4 5.597 4.198h-11.631c.788-2.798 3.149-4.198 6.034-4.198zm28.513 2.055l2.404-4.635c-1.18-1.18-3.324-2.054-5.553-2.054-2.185 0-4.416.393-6.077 3.06l-.394-2.492h-4.94v21.556h5.334v-11.368c0-3.979 2.58-5.466 5.378-5.466 1.748 0 2.754.481 3.848 1.4zm12.024 6.69c3.061.175 4.287.787 4.287 2.274 0 1.574-1.88 2.623-3.893 2.58-2.404-.044-5.902-1.312-7.432-3.018l-2.624 3.805c3.148 3.279 6.558 3.847 9.97 3.847 6.164 0 9.268-3.279 9.268-7.083 0-5.728-5.16-6.646-9.225-6.908-2.755-.175-4.022-.962-4.022-2.361 0-1.356 1.398-2.143 3.934-2.143 2.055 0 3.804.48 5.334 1.924l2.974-3.498c-2.492-2.186-5.028-2.842-8.395-2.842-3.935 0-9.094 1.75-9.094 6.733 0 4.898 4.853 6.384 8.918 6.69zm11.634-18.888c0 4.153 6.295 4.153 6.295 0 0-4.154-6.295-4.154-6.295 0zm.48 27.633h5.334v-21.643h-5.334v21.643zm11.458-7.608c0 5.378 3.06 8.045 7.738 7.87 1.618-.043 2.886-.306 4.416-.918l-1.486-4.547c-.787.394-1.75.656-2.58.656-1.662 0-2.798-1.006-2.798-3.06v-9.314H993v-4.591h-5.946v-6.121l-5.334.568v5.553h-4.024v4.59h4.024v9.314zm31.308 4.46l.263 3.148h5.028V152.54h-5.116l-.175 2.974c-1.225-2.143-3.979-3.499-6.865-3.499-6.297-.043-11.237 3.848-11.237 11.28 0 7.565 4.722 11.5 11.105 11.457 2.406-.044 5.772-1.268 6.997-3.804zm-6.385-1.094c-3.541 0-6.383-2.448-6.383-6.558 0-4.11 2.842-6.515 6.383-6.515 8.395 0 8.395 13.073 0 13.073zm15.307 4.242h5.334v-21.643h-5.334v21.643zm5.814-27.633c0-4.154-6.295-4.154-6.295 0 0 4.153 6.295 4.153 6.295 0zm8.79 16.265c0-3.979 2.581-5.466 5.38-5.466 1.747 0 2.753.481 3.847 1.4l2.404-4.636c-1.18-1.18-3.324-2.054-5.553-2.054-2.185 0-4.416.393-6.077 3.06l-.394-2.492h-4.94v21.556h5.334v-11.368zm23.263-10.844c-6.995 0-11.456 4.722-11.456 11.281 0 6.908 4.416 11.5 11.85 11.5 3.279 0 6.995-1.138 9.27-3.499l-3.41-3.367c-1.226 1.269-3.805 2.012-5.773 2.012-3.76 0-6.078-1.924-6.427-4.591h16.833c.832-8.876-3.672-13.336-10.887-13.336zm-5.86 8.92c.789-2.798 3.15-4.198 6.035-4.198 3.06 0 5.247 1.4 5.596 4.198h-11.63z" fill="white"/></svg>