<svg width="200" height="373" viewBox="0 0 200 373" fill="none" xmlns="http://www.w3.org/2000/svg">
<path d="M5.66666 367.974C5.66666 317.359 14.9058 268.538 26.1795 219.256C36.5125 174.086 43.6417 126.148 62.3618 83.359C68.8772 68.4667 76.8389 54.2442 83.0883 39.1994C87.3247 29.0007 90.4597 18.1889 95.4102 8.28773C97.3605 4.38732 97.3868 6.12903 98.1168 8.50141C101.161 18.395 108.754 27.5875 112.718 37.2763C125.825 69.3157 133.769 102.903 141.564 136.564C145.923 155.385 152.065 173.726 157.234 192.333C161.89 209.095 165.381 226.08 169.769 242.903C176.691 269.437 186.436 296.73 186.436 324.385C186.436 330.445 185.713 336.812 187.433 342.618C188.727 346.984 186.596 355.018 189.285 358.715C190.948 361.001 190.66 356.929 190.923 355.51C192.881 344.935 193.065 333.808 193.843 323.103C195.603 298.912 192.573 277.111 185.866 253.943C179.646 232.457 175.818 209.041 167.134 188.416C160.91 173.634 148.396 159.076 145.481 143.046C144.21 136.053 95.0303 150.899 90.2108 151.949C69.2849 156.505 48.3899 161.175 27.4615 165.695C21.2217 167.043 13.6356 168.217 8.23076 171.821" stroke="#FF4FED" stroke-width="10" stroke-linecap="round"/>
</svg>
