<svg width="156" height="314" viewBox="0 0 156 314" fill="none" xmlns="http://www.w3.org/2000/svg">
<path d="M5.06453 308.189C5.06453 279.061 5.06453 249.932 5.06453 220.804C5.06453 183.901 4.2362 147.793 9.54033 111.253C12.3289 92.043 15.0786 70.481 23.0388 52.5707C25.8934 46.1479 29.6014 34.1474 35.0453 29.4812C36.3172 28.391 39.1802 18.6836 39.5211 22.0925C43.1254 58.1347 54.8717 90.233 76.038 119.921C92.7304 143.334 109.12 163.488 114.331 192.386C117.184 208.209 122.968 220.429 132.874 232.811C136.955 237.913 141.658 247.534 141.896 254.195C141.962 256.028 141.862 262.703 141.896 262.152C143.468 236.999 148.288 211.016 149.285 185.424C149.952 168.297 149.911 150.982 149.498 133.846C149.192 121.161 145.729 109.061 144.738 96.4762C143.376 79.1801 143.175 61.1085 143.175 43.7611C143.175 33.0402 142.892 25.0039 147.722 15.3433C149.369 12.0487 149.717 8.50694 150.848 5.1129" stroke="#FF4FED" stroke-width="10" stroke-linecap="round"/>
</svg>
