<svg width="204" height="318" viewBox="0 0 204 318" fill="none" xmlns="http://www.w3.org/2000/svg">
<g filter="url(#filter0_d_6_6)">
<path d="M124.18 5.30768C107.512 6.14103 93.9791 21.0427 81.8718 30.9487C60.0354 48.8149 45.226 70.7035 29.5926 93.7692C14.7503 115.668 15.4082 138.689 11.359 163.997C8.24222 183.477 9.63873 202.711 15.8462 221.333C19.3246 231.769 22.4578 241.608 27.3846 251.462C30.3859 257.464 35.8988 263.075 40.5613 267.843C45.3869 272.779 49.3257 278.811 54.9487 282.872C61.8859 287.882 69.3949 293.111 76.1026 298.328C84.0862 304.537 92.6696 304.866 102.67 303.741C115.979 302.243 127.741 294.98 138.282 287.074C149.86 278.39 164.271 273.011 175.462 263.997C180.548 259.9 183.732 250.2 186.359 244.339C190.265 235.625 192.627 227.342 193.695 217.843C195.996 197.394 193.924 177.584 187.57 157.943C181.463 139.069 169.607 123.394 162.071 105.308C156.981 93.0905 151.609 78.4032 144.051 67.4872C136.364 56.383 130.632 41.5272 125.533 29.0969C123.797 24.8655 120.368 9.59287 115.205 7.87178" stroke="#FF4FED" stroke-width="10" stroke-linecap="round"/>
</g>
<defs>
<filter id="filter0_d_6_6" x="0.75679" y="0.307571" width="202.848" height="316.94" filterUnits="userSpaceOnUse" color-interpolation-filters="sRGB">
<feFlood flood-opacity="0" result="BackgroundImageFix"/>
<feColorMatrix in="SourceAlpha" type="matrix" values="0 0 0 0 0 0 0 0 0 0 0 0 0 0 0 0 0 0 127 0" result="hardAlpha"/>
<feOffset dy="4"/>
<feGaussianBlur stdDeviation="2"/>
<feComposite in2="hardAlpha" operator="out"/>
<feColorMatrix type="matrix" values="0 0 0 0 0 0 0 0 0 0 0 0 0 0 0 0 0 0 0.25 0"/>
<feBlend mode="normal" in2="BackgroundImageFix" result="effect1_dropShadow_6_6"/>
<feBlend mode="normal" in="SourceGraphic" in2="effect1_dropShadow_6_6" result="shape"/>
</filter>
</defs>
</svg>
