<svg width="185" height="363" viewBox="0 0 185 363" fill="none" xmlns="http://www.w3.org/2000/svg">
<path d="M6.56409 325.282C6.56409 278.416 6.56409 231.55 6.56409 184.684C6.56409 171.785 4.79688 157.407 7.27634 144.655C8.49847 138.37 10.4256 132.257 11.6923 125.994C17.9301 95.1516 23.2632 63.1532 32.2051 32.9744C36.0765 19.9084 46.1407 6.05128 60.6951 6.05128C71.1437 6.05128 82.7045 4.08881 91.8917 9.96866C98.2313 14.026 109.075 19.558 111.692 27.1339C115.361 37.7547 117.475 48.8521 120.667 59.6125C121.726 63.1828 127.36 74.6461 125.652 78.4872C124.241 81.6633 111.593 84.4462 108.345 86.2507C99.1011 91.3861 90.0089 96.7945 80.9231 102.205C61.3604 113.855 36.2098 127.846 12.6894 127.846C11.9283 127.846 7.69427 127.286 7.13389 127.846C6.70654 128.274 7.98859 128.701 8.41594 129.128C11.2451 131.957 13.889 134.873 16.5356 137.889C54.3113 180.936 89.4656 227.303 122.946 273.715C135.275 290.807 147.548 308.526 157.276 327.276C159.204 330.992 161.678 337.917 164.969 340.738C170.098 345.135 173.981 354.503 179.641 357.333" stroke="#FF4FED" stroke-width="10" stroke-linecap="round"/>
</svg>
