<svg width="163" height="300" viewBox="0 0 163 300" fill="none" xmlns="http://www.w3.org/2000/svg">
<path d="M133.177 5.2281C115.889 6.79982 99.4047 16.6779 83.3041 22.4919C69.6652 27.4171 55.0338 37.3335 45.9347 48.7074C39.8042 56.3705 38.1448 67.9165 37.5515 77.4094C36.4726 94.6718 35.0728 115.169 40.6774 131.758C46.5864 149.249 57.0968 161.284 74.6367 167.352C93.2682 173.797 112.818 177.148 131.614 182.982C150.202 188.75 157.475 207.887 157.475 226.461C157.475 246.561 135.526 260.908 122.237 273.066C104.947 288.884 84.2021 287.033 62.8433 289.406C43.407 291.566 24.9673 294.237 5.29724 294.237" stroke="#FF4FED" stroke-width="10" stroke-linecap="round"/>
</svg>
