
  <svg width="160.5" height="104.25" viewBox="0 0 856 556" fill="none" xmlns="http://www.w3.org/2000/svg" xmlns:xlink="http://www.w3.org/1999/xlink" version="1.1">
    
        <g transform="translate(0, 0)">
          <svg width="256" height="256" viewBox="0 0 256 256" fill="none" xmlns="http://www.w3.org/2000/svg">
<rect width="256" height="256" rx="60" fill="#242938"/>
<path d="M41.6364 203.028H73.4545V125.755L28 91.6646V189.392C28 196.937 34.1136 203.028 41.6364 203.028Z" fill="#4285F4"/>
<path d="M182.545 203.028H214.364C221.909 203.028 228 196.915 228 189.392V91.6646L182.545 125.755" fill="#34A853"/>
<path d="M182.545 66.6643V125.755L228 91.6643V73.4825C228 56.6189 208.75 47.0052 195.273 57.1189" fill="#FBBC04"/>
<path d="M73.4545 125.755V66.6646L128 107.574L182.545 66.6646V125.755L128 166.665" fill="#EA4335"/>
<path d="M28 73.4825V91.6643L73.4545 125.755V66.6643L60.7273 57.1189C47.2273 47.0052 28 56.6189 28 73.4825Z" fill="#C5221F"/>
</svg>

        </g>
         
        <g transform="translate(300, 0)">
          <svg width="256" height="256" viewBox="0 0 256 256" fill="none" xmlns="http://www.w3.org/2000/svg">
<rect width="256" height="256" rx="60" fill="url(#paint0_radial_206_683)"/>
<rect width="256" height="256" rx="60" fill="url(#paint1_radial_206_683)"/>
<path d="M128.009 28C100.851 28 97.4424 28.1188 86.7756 28.6042C76.1297 29.0917 68.8629 30.7771 62.5045 33.2501C55.9274 35.8042 50.3481 39.221 44.7898 44.7814C39.2272 50.3398 35.8105 55.919 33.248 62.4941C30.7688 68.8546 29.0813 76.1234 28.6021 86.7652C28.125 97.432 28 100.842 28 128.001C28 155.16 28.1208 158.558 28.6042 169.224C29.0938 179.87 30.7792 187.137 33.2501 193.495C35.8063 200.073 39.223 205.652 44.7835 211.21C50.3398 216.773 55.919 220.198 62.492 222.752C68.8546 225.225 76.1234 226.91 86.7673 227.398C97.4341 227.883 100.84 228.002 127.997 228.002C155.158 228.002 158.556 227.883 169.222 227.398C179.868 226.91 187.143 225.225 193.506 222.752C200.081 220.198 205.652 216.773 211.208 211.21C216.771 205.652 220.187 200.073 222.75 193.498C225.208 187.137 226.896 179.868 227.396 169.226C227.875 158.56 228 155.16 228 128.001C228 100.842 227.875 97.4341 227.396 86.7673C226.896 76.1213 225.208 68.8546 222.75 62.4962C220.187 55.919 216.771 50.3398 211.208 44.7814C205.646 39.2189 200.083 35.8022 193.5 33.2501C187.125 30.7771 179.854 29.0917 169.208 28.6042C158.541 28.1188 155.145 28 127.978 28H128.009ZM119.038 46.021C121.701 46.0169 124.672 46.021 128.009 46.021C154.71 46.021 157.874 46.1169 168.418 46.596C178.168 47.0419 183.46 48.671 186.985 50.0398C191.652 51.8523 194.979 54.019 198.477 57.5191C201.977 61.0191 204.143 64.3525 205.96 69.0192C207.329 72.54 208.96 77.8318 209.404 87.5819C209.883 98.1236 209.987 101.29 209.987 127.978C209.987 154.666 209.883 157.833 209.404 168.374C208.958 178.124 207.329 183.416 205.96 186.937C204.148 191.604 201.977 194.927 198.477 198.425C194.977 201.925 191.654 204.091 186.985 205.904C183.464 207.279 178.168 208.904 168.418 209.35C157.876 209.829 154.71 209.933 128.009 209.933C101.307 209.933 98.1424 209.829 87.6006 209.35C77.8505 208.9 72.5588 207.271 69.0317 205.902C64.365 204.089 61.0316 201.923 57.5316 198.423C54.0315 194.923 51.8648 191.598 50.0481 186.929C48.6794 183.408 47.0481 178.116 46.6044 168.366C46.1252 157.824 46.0294 154.658 46.0294 127.953C46.0294 101.249 46.1252 98.0986 46.6044 87.5569C47.0502 77.8068 48.6794 72.515 50.0481 68.99C51.8607 64.3233 54.0315 60.9899 57.5316 57.4899C61.0316 53.9899 64.365 51.8232 69.0317 50.0065C72.5567 48.6315 77.8505 47.0064 87.6006 46.5585C96.8257 46.1419 100.401 46.0169 119.038 45.996V46.021ZM181.389 62.6254C174.764 62.6254 169.389 67.9942 169.389 74.6213C169.389 81.2464 174.764 86.6214 181.389 86.6214C188.014 86.6214 193.389 81.2464 193.389 74.6213C193.389 67.9962 188.014 62.6212 181.389 62.6212V62.6254ZM128.009 76.6463C99.6487 76.6463 76.6547 99.6403 76.6547 128.001C76.6547 156.362 99.6487 179.345 128.009 179.345C156.37 179.345 179.356 156.362 179.356 128.001C179.356 99.6403 156.368 76.6463 128.007 76.6463H128.009ZM128.009 94.6674C146.418 94.6674 161.343 109.59 161.343 128.001C161.343 146.41 146.418 161.335 128.009 161.335C109.599 161.335 94.6757 146.41 94.6757 128.001C94.6757 109.59 109.599 94.6674 128.009 94.6674V94.6674Z" fill="white"/>
<defs>
<radialGradient id="paint0_radial_206_683" cx="0" cy="0" r="1" gradientUnits="userSpaceOnUse" gradientTransform="translate(68.0003 275.717) rotate(-90) scale(253.715 235.975)">
<stop stop-color="#FFDD55"/>
<stop offset="0.1" stop-color="#FFDD55"/>
<stop offset="0.5" stop-color="#FF543E"/>
<stop offset="1" stop-color="#C837AB"/>
</radialGradient>
<radialGradient id="paint1_radial_206_683" cx="0" cy="0" r="1" gradientUnits="userSpaceOnUse" gradientTransform="translate(-42.8814 18.4418) rotate(78.6806) scale(113.412 467.488)">
<stop stop-color="#3771C8"/>
<stop offset="0.128" stop-color="#3771C8"/>
<stop offset="1" stop-color="#6600FF" stop-opacity="0"/>
</radialGradient>
</defs>
</svg>

        </g>
         
        <g transform="translate(600, 0)">
          <svg xmlns="http://www.w3.org/2000/svg" width="256" height="256" fill="none" viewBox="0 0 256 256"><rect width="256" height="256" fill="#5865F2" rx="60"/><g clip-path="url(#clip0_158_82)"><path fill="#fff" d="M197.308 64.7966C184.561 58.9476 170.892 54.6383 156.599 52.1701C156.339 52.1225 156.079 52.2415 155.945 52.4796C154.187 55.6064 152.239 59.6856 150.876 62.8918C135.503 60.5904 120.21 60.5904 105.153 62.8918C103.789 59.6143 101.771 55.6064 100.005 52.4796C99.8707 52.2495 99.6107 52.1305 99.3504 52.1701C85.0659 54.6304 71.3963 58.9397 58.6411 64.7966C58.5307 64.8442 58.4361 64.9236 58.3732 65.0267C32.4449 103.763 25.3421 141.547 28.8265 178.863C28.8423 179.046 28.9447 179.22 29.0867 179.331C46.1934 191.894 62.7642 199.521 79.0273 204.576C79.2876 204.655 79.5634 204.56 79.729 204.346C83.5761 199.092 87.0054 193.553 89.9456 187.728C90.1192 187.386 89.9535 186.982 89.5989 186.847C84.1594 184.783 78.98 182.268 73.9977 179.411C73.6037 179.181 73.5721 178.617 73.9347 178.347C74.9831 177.561 76.0318 176.744 77.033 175.919C77.2141 175.768 77.4665 175.736 77.6794 175.831C110.411 190.775 145.846 190.775 178.191 175.831C178.404 175.728 178.657 175.76 178.846 175.911C179.847 176.736 180.895 177.561 181.952 178.347C182.314 178.617 182.291 179.181 181.897 179.411C176.914 182.323 171.735 184.783 166.288 186.839C165.933 186.974 165.775 187.386 165.949 187.728C168.952 193.545 172.381 199.084 176.157 204.338C176.315 204.56 176.599 204.655 176.859 204.576C193.201 199.521 209.772 191.894 226.879 179.331C227.028 179.22 227.123 179.053 227.139 178.871C231.309 135.73 220.154 98.2554 197.568 65.0346C197.513 64.9236 197.419 64.8442 197.308 64.7966ZM94.8335 156.142C84.9792 156.142 76.8594 147.095 76.8594 135.984C76.8594 124.873 84.8217 115.826 94.8335 115.826C104.924 115.826 112.965 124.953 112.807 135.984C112.807 147.095 104.845 156.142 94.8335 156.142ZM161.29 156.142C151.435 156.142 143.316 147.095 143.316 135.984C143.316 124.873 151.278 115.826 161.29 115.826C171.38 115.826 179.421 124.953 179.264 135.984C179.264 147.095 171.38 156.142 161.29 156.142Z"/></g><defs><clipPath id="clip0_158_82"><rect width="200" height="154.93" fill="#fff" transform="translate(28 51)"/></clipPath></defs></svg>
        </g>
         
        <g transform="translate(0, 300)">
          <svg width="256" height="256" viewBox="0 0 256 256" fill="none" xmlns="http://www.w3.org/2000/svg">
<rect width="256" height="256" rx="60" fill="white"/>
<rect width="256" height="256" rx="60" fill="#0A66C2"/>
<path d="M184.715 217.685H213.985C216.194 217.685 217.985 215.895 217.985 213.686L218 151.844C218 119.521 211.035 94.6755 173.262 94.6755C158.903 94.1423 145.362 101.544 138.055 113.904C137.997 114.002 137.893 114.062 137.779 114.062C137.603 114.062 137.46 113.919 137.46 113.743V101.66C137.46 99.4511 135.67 97.6602 133.46 97.6602H105.683C103.474 97.6602 101.683 99.4511 101.683 101.66V213.68C101.683 215.89 103.474 217.68 105.683 217.68H134.951C137.16 217.68 138.951 215.89 138.951 213.68V158.307C138.951 142.65 141.921 127.487 161.332 127.487C180.467 127.487 180.715 145.403 180.715 159.321V213.685C180.715 215.894 182.506 217.685 184.715 217.685Z" fill="white"/>
<path d="M38 59.6275C38 71.4921 47.7675 81.2539 59.6321 81.2539C71.4944 81.2528 81.2551 71.4853 81.2551 59.623C81.2528 47.7607 71.491 38 59.6275 38C47.763 38 38 47.763 38 59.6275Z" fill="white"/>
<path d="M44.9588 217.685H74.2659C76.4751 217.685 78.2659 215.894 78.2659 213.685V101.66C78.2659 99.4511 76.4751 97.6602 74.2659 97.6602H44.9588C42.7497 97.6602 40.9588 99.4511 40.9588 101.66V213.685C40.9588 215.894 42.7497 217.685 44.9588 217.685Z" fill="white"/>
</svg>

        </g>
         
        <g transform="translate(300, 300)">
          <svg xmlns="http://www.w3.org/2000/svg" width="256" height="256" fill="none" viewBox="0 0 256 256"><rect width="256" height="256" fill="#242938" rx="60"/><path fill="#BCBBBB" d="M183.541 206.378V157.73H205.162V228H43V157.73H64.6216V206.378H183.541Z"/><path fill="#F48024" d="M159.216 28L144.622 38.8108L198.135 110.703L212.73 99.8919L159.216 28ZM183.541 127.459L114.892 70.1622L126.243 56.6486L194.892 113.946L183.541 127.459ZM92.1892 110.162L173.27 148L180.838 131.784L99.7568 93.9459L92.1892 110.162ZM167.865 168.486L171.541 152.541L84.5136 134.432L80.8379 152.324L167.865 168.486V168.486ZM167.324 190.162H80.8379V173.946H167.324V190.162Z"/></svg>
        </g>
         
        <g transform="translate(600, 300)">
          <svg width="256" height="256" viewBox="0 0 256 256" fill="none" xmlns="http://www.w3.org/2000/svg">
<rect width="256" height="256" rx="60" fill="white"/>
<rect width="256" height="256" rx="60" fill="#1D9BF0"/>
<path d="M199.572 91.4114C199.682 92.9983 199.682 94.5851 199.682 96.1866C199.682 144.984 162.534 201.262 94.607 201.262V201.232C74.5411 201.262 54.8921 195.514 38 184.677C40.9177 185.028 43.8501 185.203 46.7898 185.21C63.4186 185.225 79.5722 179.645 92.6545 169.371C76.8519 169.071 62.9945 158.768 58.1536 143.726C63.6892 144.794 69.3931 144.574 74.8263 143.09C57.5978 139.609 45.2029 124.472 45.2029 106.892C45.2029 106.731 45.2029 106.578 45.2029 106.424C50.3364 109.283 56.0841 110.87 61.9634 111.046C45.7367 100.201 40.7349 78.6144 50.5338 61.7368C69.2834 84.8081 96.947 98.8337 126.644 100.318C123.667 87.4919 127.733 74.0513 137.327 65.0348C152.201 51.0531 175.594 51.7697 189.576 66.6363C197.846 65.0056 205.773 61.9708 213.027 57.671C210.271 66.2195 204.501 73.4809 196.793 78.0952C204.113 77.2323 211.265 75.2725 218 72.2816C213.042 79.7112 206.797 86.1829 199.572 91.4114Z" fill="white"/>
</svg>

        </g>
        
  </svg>
  