
  <svg width="666.75" height="48" viewBox="0 0 3556 256" fill="none" xmlns="http://www.w3.org/2000/svg" xmlns:xlink="http://www.w3.org/1999/xlink" version="1.1">
    
        <g transform="translate(0, 0)">
          <svg xmlns="http://www.w3.org/2000/svg" width="256" height="256" fill="none" viewBox="0 0 256 256"><rect width="256" height="256" fill="url(#paint0_linear_158_100)" rx="60"/><g filter="url(#filter0_d_158_100)"><path fill="url(#paint1_linear_158_100)" d="M131.97 196.157C161.646 196.157 179.529 181.626 179.529 157.66C179.529 139.543 166.77 126.428 147.823 124.351V123.597C161.743 121.332 172.666 108.405 172.666 93.9689C172.666 73.3992 156.427 60 131.68 60H76V196.157H131.97ZM97.6533 77.2674H126.46C142.12 77.2674 151.013 84.2497 151.013 96.8935C151.013 110.387 140.67 117.935 121.917 117.935H97.6533V77.2674V77.2674ZM97.6533 178.89V134.071H126.266C146.76 134.071 157.393 141.619 157.393 156.339C157.393 171.058 147.05 178.89 127.523 178.89H97.6533V178.89Z"/><path stroke="#fff" stroke-width="2" d="M131.97 196.157C161.646 196.157 179.529 181.626 179.529 157.66C179.529 139.543 166.77 126.428 147.823 124.351V123.597C161.743 121.332 172.666 108.405 172.666 93.9689C172.666 73.3992 156.427 60 131.68 60H76V196.157H131.97ZM97.6533 77.2674H126.46C142.12 77.2674 151.013 84.2497 151.013 96.8935C151.013 110.387 140.67 117.935 121.917 117.935H97.6533V77.2674V77.2674ZM97.6533 178.89V134.071H126.266C146.76 134.071 157.393 141.619 157.393 156.339C157.393 171.058 147.05 178.89 127.523 178.89H97.6533V178.89Z"/></g><defs><filter id="filter0_d_158_100" width="137.529" height="170.157" x="59" y="47" color-interpolation-filters="sRGB" filterUnits="userSpaceOnUse"><feFlood flood-opacity="0" result="BackgroundImageFix"/><feColorMatrix in="SourceAlpha" result="hardAlpha" type="matrix" values="0 0 0 0 0 0 0 0 0 0 0 0 0 0 0 0 0 0 127 0"/><feOffset dy="4"/><feGaussianBlur stdDeviation="8"/><feColorMatrix type="matrix" values="0 0 0 0 0 0 0 0 0 0 0 0 0 0 0 0 0 0 0.15 0"/><feBlend in2="BackgroundImageFix" mode="normal" result="effect1_dropShadow_158_100"/><feBlend in="SourceGraphic" in2="effect1_dropShadow_158_100" mode="normal" result="shape"/></filter><linearGradient id="paint0_linear_158_100" x1="0" x2="256" y1="0" y2="256" gradientUnits="userSpaceOnUse"><stop stop-color="#9013FE"/><stop offset="1" stop-color="#6B11F4"/></linearGradient><linearGradient id="paint1_linear_158_100" x1="85.793" x2="148.541" y1="68.962" y2="175.084" gradientUnits="userSpaceOnUse"><stop stop-color="#fff"/><stop offset="1" stop-color="#F1E5FC"/></linearGradient></defs></svg>
        </g>
         
        <g transform="translate(300, 0)">
          <svg width="256" height="256" viewBox="0 0 256 256" fill="none" xmlns="http://www.w3.org/2000/svg">
<rect width="256" height="256" rx="60" fill="#242938"/>
<path d="M67.8948 193.68H65.7476C64.8888 202.533 63.6863 213.294 48.57 213.294H41.6131C37.5764 213.294 37.4046 212.687 37.4046 209.823V163.738C37.4046 160.787 37.4046 159.572 45.4781 159.572H48.3124V156.968C45.2204 157.229 37.4905 157.229 33.9691 157.229C30.6195 157.229 23.9202 157.229 21 156.968V159.572H22.9754C29.5888 159.572 29.7606 160.526 29.7606 163.651V209.215C29.7606 212.34 29.5888 213.294 22.9754 213.294H21V215.985H65.5759L67.8948 193.68V193.68Z" fill="white"/>
<path d="M66.4348 156.881C66.0913 155.84 65.9195 155.493 64.8029 155.493C63.6864 155.493 63.4287 155.84 63.0852 156.881L49.2572 192.291C48.656 193.767 47.6253 196.457 42.3003 196.457V198.627H55.6129V196.457C52.9504 196.457 51.3185 195.242 51.3185 193.506C51.3185 193.072 51.4044 192.899 51.5762 192.291L54.4964 184.827H71.5022L74.9377 193.68C75.1095 194.027 75.2813 194.461 75.2813 194.721C75.2813 196.457 72.0175 196.457 70.3857 196.457V198.627H87.3056V196.457H86.1032C82.0664 196.457 81.637 195.85 81.0358 194.114L66.4348 156.881V156.881ZM62.9993 163.043L70.6433 182.658H55.3553L62.9993 163.043V163.043Z" fill="white"/>
<path d="M135.231 157.489H82.9251L81.3792 176.93H83.4405C84.6429 162.956 85.9312 160.092 98.9003 160.092C100.446 160.092 102.679 160.092 103.538 160.266C105.342 160.613 105.342 161.568 105.342 163.564V209.128C105.342 212.079 105.342 213.294 96.3237 213.294H92.8881V215.985C96.4095 215.724 105.084 215.724 109.035 215.724C112.986 215.724 121.832 215.724 125.354 215.985V213.294H121.918C112.9 213.294 112.9 212.079 112.9 209.128V163.564C112.9 161.828 112.9 160.613 114.446 160.266C115.391 160.092 117.71 160.092 119.342 160.092C132.225 160.092 133.513 162.956 134.716 176.93H136.863C136.863 176.93 135.231 157.489 135.231 157.489Z" fill="white"/>
<path d="M181.267 213.207H179.12C176.972 226.486 174.997 232.822 160.31 232.822H148.973C144.936 232.822 144.764 232.214 144.764 229.35V206.264H152.408C160.74 206.264 161.684 209.042 161.684 216.419H163.832V193.506H161.684C161.684 200.883 160.74 203.574 152.408 203.574H144.764V182.831C144.764 179.967 144.936 179.36 148.973 179.36H159.967C173.107 179.36 175.341 184.133 176.715 196.197H178.862C178.862 196.197 176.457 176.756 176.457 176.756H128.36V179.36H130.335C136.949 179.36 137.12 180.314 137.12 183.439V228.743C137.12 231.867 136.949 232.822 130.335 232.822H128.36V235.512H177.66L181.267 213.207V213.207Z" fill="white"/>
<path d="M207.119 182.571L218.886 165.213C220.69 162.436 223.61 159.659 231.254 159.572V156.968H210.812V159.572C214.248 159.659 216.138 161.568 216.138 163.564C216.138 164.432 215.966 164.606 215.365 165.56L205.573 180.141C205.573 180.141 194.58 163.477 194.58 163.477C194.408 163.217 193.978 162.523 193.978 162.175C193.978 161.134 195.868 159.659 199.475 159.572V156.968C196.555 157.229 190.285 157.229 187.022 157.229C184.359 157.229 179.034 157.142 175.856 156.968V159.572H177.488C182.212 159.572 183.844 160.179 185.476 162.609L201.193 186.65L187.193 207.566C185.991 209.302 183.414 213.294 174.825 213.294V215.985H195.267V213.294C191.316 213.208 189.856 210.864 189.856 209.302C189.856 208.521 190.113 208.174 190.715 207.219L202.825 189.08L216.395 209.736C216.567 210.083 216.825 210.43 216.825 210.691C216.825 211.732 214.935 213.208 211.242 213.294V215.985C214.248 215.724 220.518 215.724 223.696 215.724C227.303 215.724 231.254 215.811 234.861 215.985V213.294H233.229C228.763 213.294 226.959 212.86 225.156 210.17L207.119 182.571V182.571Z" fill="white"/>
<path d="M66.7719 20.0002C68.2818 22.7202 69.8515 25.0409 71.4904 27.0521C70.7411 26.9428 69.9691 26.8785 69.1673 26.8869C67.5836 26.9036 65.8906 27.1665 64.0565 27.744C67.257 30.4241 69.9618 32.38 72.3477 33.8874C68.6619 32.7101 64.6927 32.5424 60.0302 34.7547C63.4359 36.8858 66.2945 38.426 68.7965 39.5765C64.896 38.8576 60.8514 39.1851 56.4371 42.0958C59.3516 43.3945 61.872 44.3696 64.1086 45.1107C60.4373 45.239 56.8035 46.3729 53.247 49.7466C56.332 50.512 58.9752 51.0194 61.3003 51.3573C58.4546 51.9323 55.6631 53.2973 52.9577 56.0242C55.0538 56.4771 56.9406 56.8189 58.6674 57.0774C56.5416 58.1049 54.5288 59.6973 52.6892 62.1366C55.1046 62.3242 57.2416 62.4075 59.163 62.4154C56.8382 63.4911 54.662 65.1907 52.7202 67.9187C56.1701 68.0911 59.0519 68.0743 61.5378 67.9289C58.8059 69.0458 56.288 70.933 54.1347 74.1963C58.4223 74.2589 61.818 74.053 64.6659 73.7007C61.1311 74.6604 57.8591 76.5901 55.167 80.6701C58.6305 80.7206 61.5214 80.5946 64.0052 80.3603C60.9687 82.015 58.3608 84.5249 56.6435 88.8064C59.7696 88.2144 62.3895 87.5806 64.6455 86.917C62.2956 88.6271 60.3204 91.029 58.9976 94.6401C61.0948 94.1765 62.956 93.6911 64.6351 93.2049C63.1278 95.0273 61.9659 97.3083 61.3105 100.298C63.5878 99.4595 65.5576 98.6467 67.3093 97.8511C65.6451 99.7986 64.374 102.264 63.7472 105.554C66.9534 104.272 69.5613 103.047 71.7594 101.878C69.7444 104.032 68.2452 106.803 67.6501 110.665C71.5537 108.941 74.5486 107.345 76.9838 105.843C74.1871 108.187 72.0366 111.303 71.2947 116.116C76.3954 113.865 79.9551 111.822 82.7246 109.932C81.5352 112.337 80.9048 115.154 81.2068 118.666C86.1365 114.884 89.2593 111.823 91.5831 109.126C91.4263 110.868 91.55 112.762 92.0684 114.857C95.6074 108.776 99.1244 107.001 102.764 104.972C96.9668 107.891 97.8262 110.088 97.8262 112.637C102.249 107.98 108.416 103.041 110.303 99.9474C107.78 103.735 106.754 107.322 106.09 110.489C93.1853 117.314 85.328 119.097 76.5191 121.825C79.9359 123.079 83.5976 124.306 82.0843 126.048L78.0472 130.075C80.6276 129.273 83.2587 128.128 85.5432 129.693C85.319 131.81 82.6437 132.878 80.3599 134.112C84.3805 132.663 85.25 132.998 86.3071 133.338C86.8353 135.874 85.0025 137.238 83.8085 138.913C93.9358 131.213 107.15 125.13 116.456 122.589C129.546 118.181 146.424 113.599 151.014 102.425L155.619 83.9945C161 78.1704 165.95 72.1307 168.298 64.7903C183.283 61.8913 195.399 62.9379 208.039 63.2622C206.887 63.0702 169.445 56.7264 169.445 56.7264C158.502 41.7548 142.191 51.9313 136.817 66.7209C135.461 70.4538 127.723 70.455 125.481 66.7107C116.614 47.6211 89.6869 27.4384 66.7726 20.0001V20L66.7719 20.0002Z" fill="#008080"/>
<path d="M155.177 59.0692L155.079 59.2267C154.691 59.9501 154.034 60.4439 153.11 60.7426C152.187 61.0412 151.004 61.1369 149.626 61.0772L148.76 61.0378L149.39 61.6482C149.709 61.9558 149.799 62.2013 149.803 62.4159C149.808 62.6305 149.715 62.8623 149.508 63.1246C149.093 63.6494 148.269 64.2191 147.5 64.798L147.244 64.9751L147.421 65.2311C148.062 66.2151 148.356 66.9726 148.425 67.554C148.494 68.1355 148.359 68.5526 148.09 68.9123C147.553 69.6321 146.375 70.1198 145.314 70.7235L145.118 70.8219L145.157 71.0582C145.248 71.6116 145.099 72.0639 144.704 72.5149C144.309 72.9658 143.645 73.3959 142.755 73.7749L142.519 73.8733L142.558 74.1293C142.736 75.3144 143.092 76.3457 143.838 77.0034C144.52 77.6052 145.553 77.7638 146.87 77.4955C147.099 78.7589 147.428 79.9078 148.189 80.6651C148.959 81.4326 150.18 81.6596 151.811 81.236C152.178 82.1208 152.715 82.7513 153.327 83.1652C153.999 83.6197 154.878 83.803 155.6 84.0275L156.028 83.567C155.311 83.3443 154.252 83 153.681 82.614C153.11 82.2281 152.646 81.6986 152.323 80.7833L152.224 80.4683L151.909 80.5667C150.232 81.0822 149.302 80.8501 148.661 80.2123C148.021 79.5746 147.661 78.4217 147.441 77.0822L147.382 76.7278L147.027 76.8262C145.645 77.187 144.828 77.0025 144.271 76.5112C143.751 76.0524 143.443 75.2389 143.267 74.2276C144.068 73.8573 144.755 73.4522 145.196 72.9481C145.628 72.4555 145.814 71.8475 145.787 71.2157C146.764 70.6781 147.943 70.2162 148.622 69.3061C148.977 68.8303 149.161 68.2049 149.075 67.4753C148.996 66.8115 148.671 66.0446 148.11 65.1326C148.799 64.6254 149.546 64.117 150.02 63.5183C150.283 63.1855 150.481 62.8171 150.472 62.3963C150.468 62.1642 150.245 61.9527 150.118 61.7269C151.316 61.7426 152.407 61.6637 153.307 61.3725C154.256 61.0658 155.001 60.5068 155.492 59.7386C156.91 59.7457 158.378 60.0575 159.863 60.2504C161.388 60.4487 162.94 60.5019 164.41 59.8567L164.135 59.2465C162.834 59.8173 161.445 59.7936 159.961 59.6008C158.477 59.408 156.931 59.058 155.374 59.0693H155.177L155.177 59.0692Z" fill="white"/>
<path d="M160.686 58.8242C160.686 60.3691 159.434 61.6215 157.889 61.6215C156.344 61.6215 155.092 60.3691 155.092 58.8242C155.092 57.2794 156.344 56.0269 157.889 56.0269C159.434 56.0269 160.686 57.2793 160.686 58.8242Z" fill="white" stroke="white" stroke-width="0.660673"/>
<path d="M169.041 56.2C166.529 59.467 165.898 58.6232 164.369 59.1709L164.113 59.2693L164.153 59.5449C164.741 62.8263 166.686 63.8689 168.204 65.0616L168.288 64.7962L168.692 64.7193C167.171 63.5236 165.506 62.5109 164.901 59.7221C166.014 59.4587 167.077 59.7955 169.448 56.7101L169.041 56.2001V56.2Z" fill="white"/>
<path d="M72.3442 33.8794C77.0896 36.8218 84.8996 39.856 89.9155 43.0258C92.6748 44.7827 95.1532 46.5334 97.0813 48.0457C99.0094 49.5582 100.435 51.1207 100.96 51.6287C101.484 52.1367 101.84 51.8966 101.491 51.2349C101.142 50.5733 99.4247 49.0436 97.4751 47.5142C95.5255 45.9849 93.0455 44.2419 90.2698 42.4745C84.7184 38.9398 78.2029 35.7793 72.3445 33.879L72.3442 33.8794Z" fill="white"/>
<path d="M71.4905 27.0505C73.4798 27.5099 76.4158 29.2065 79.6806 31.0217C82.9455 32.8369 86.5038 35.0707 89.7597 37.2426C93.0158 39.4145 95.5263 41.3154 97.5332 42.8467C99.439 44.4776 100.38 45.5337 100.745 45.5305C100.795 45.5405 100.844 45.5413 100.922 45.5305C101 45.5197 101.131 45.4596 101.197 45.3336C101.264 45.2078 101.238 45.102 101.217 45.0384C101.196 44.9747 101.185 44.941 101.158 44.9005C101.05 44.7388 100.886 44.5874 100.646 44.369C100.167 43.9323 99.3739 43.2901 98.3626 42.5185C96.3399 40.9752 93.4007 38.8705 90.1338 36.6913C86.8668 34.5121 83.2834 32.2591 79.9955 30.4311C78.8267 29.998 73.095 26.9668 71.4901 27.0504H71.49L71.4905 27.0505Z" fill="white"/>
<path d="M68.7717 39.5781C74.8623 42.0641 83.5268 44.9843 89.3101 48.6194C92.4175 50.5927 95.124 52.5583 97.1452 54.171C98.1558 54.9773 98.9999 55.7021 99.6257 56.2774C100.252 56.8528 100.604 57.3751 100.807 57.5177C101.23 57.8161 101.555 57.6178 101.358 57.1436C101.21 56.7855 100.72 56.3748 100.078 55.7852C99.4372 55.1957 98.5789 54.4732 97.5586 53.6591C95.518 52.031 92.7937 50.0355 89.6644 48.0484C83.406 44.0743 75.9242 40.5803 68.772 39.5777L68.7717 39.5781Z" fill="white"/>
<path d="M64.0847 45.103C68.8314 45.1061 78.6366 49.4509 82.7696 51.6284C89.4708 55.2022 95.5645 59.7963 98.9323 63.0068C99.3057 63.3629 99.8513 63.0487 99.4245 62.5541C96.2963 58.9293 89.8355 54.6575 83.0847 51.0571C76.3339 47.4567 69.3437 45.0973 64.0845 45.1026L64.0847 45.103Z" fill="white"/>
<path d="M61.342 51.355C68.4781 52.3992 77.0321 55.2796 83.2644 58.4007C86.7423 60.1666 89.8436 62.058 92.2219 63.7357C94.5999 65.4134 96.3558 67.3023 96.7891 67.791C97.2224 68.2798 97.7385 68.3002 97.3403 67.4367C96.9421 66.5732 95.0053 64.8843 92.5959 63.1845C90.1866 61.4846 87.0651 59.5897 83.5601 57.81C76.5498 54.2506 68.5664 51.4504 61.3422 51.3549L61.342 51.355Z" fill="white"/>
<path d="M63.6973 56.6664C61.9246 56.5118 60.3289 56.8753 58.7031 57.0785C65.0438 56.4843 73.9103 59.3961 79.8208 62.1196C86.7832 65.3836 92.5643 69.8648 95.3339 72.7109C95.7674 73.1564 96.0738 72.5887 95.8457 72.2974C93.267 69.0052 87.1261 64.8048 80.0964 61.5094C74.8244 59.0378 69.0159 57.1307 63.6973 56.6666V56.6664Z" fill="white"/>
<path d="M59.1921 62.381C65.4318 62.8435 73.7859 64.3376 79.6379 67.0239C85.5234 69.7767 89.9897 73.346 92.2368 75.3712C92.5826 75.6828 93.1941 75.4621 92.7093 74.8987C90.6585 72.5159 85.8899 69.2199 79.9326 66.4337C73.9756 63.6474 66.7394 61.8629 59.1919 62.3813L59.1921 62.381Z" fill="white"/>
<path d="M64.7959 67.5738C63.4794 67.5293 62.8619 67.7756 61.5918 67.9128C65.8268 68.0994 72.5569 69.2257 76.2733 70.4874C81.0962 72.1606 85.0617 74.6811 87.3175 76.6493C87.753 77.0293 88.0777 76.5195 87.79 76.1965C85.6774 73.8258 81.3838 71.5554 76.4897 69.8574C72.8194 68.584 68.7454 67.7074 64.7959 67.5738H64.7959Z" fill="white"/>
<path d="M64.6142 73.7152C73.6673 74.3261 79.1416 75.9212 83.3378 79.6802C83.6522 79.9618 84.1486 79.5741 83.8103 79.2077C79.5041 74.5422 71.0257 73.2422 64.614 73.7153L64.6142 73.7152Z" fill="white"/>
<path d="M71.5854 79.1531C68.841 78.9323 66.5446 79.5321 64.0435 80.3649C71.3629 79.1983 74.4063 79.7577 79.9517 82.3619C80.5839 82.6588 80.5468 81.9594 80.2667 81.791C77.3208 80.0203 74.3293 79.3737 71.585 79.1531L71.5854 79.1531Z" fill="white"/>
<path d="M71.3246 84.2512C68.7298 84.4813 66.5265 85.3723 64.71 86.8497C71.9583 84.0559 73.9615 84.6118 79.5053 86.1834C80.2344 86.3901 80.0078 85.6878 79.7218 85.5731C76.4024 84.2422 73.9197 84.0211 71.3247 84.2511L71.3246 84.2512Z" fill="white"/>
<path d="M85.686 88.7405C81.8187 88.3224 77.4619 88.7914 73.638 89.4886C69.8143 90.1859 66.5257 91.6025 64.6694 93.1124C71.027 90.4274 72.1856 90.4331 73.7566 90.1383C77.5237 89.4513 81.2578 89.1835 85.6472 89.3902C86.0453 89.409 86.0249 88.7771 85.6866 88.7405H85.686Z" fill="white"/>
<path d="M87.9307 91.8706C83.7397 91.7123 79.411 92.7494 75.6661 93.8196C71.9216 94.8898 69.1422 96.3501 67.3093 97.8408C71.0179 96.0569 74.469 94.8494 75.8432 94.4495C79.5354 93.3942 83.2602 92.4807 87.9702 92.5399C88.3361 92.5446 88.5726 91.8948 87.9308 91.8706L87.9307 91.8706Z" fill="white"/>
<path d="M91.3532 94.4472C87.406 95.0299 83.2675 96.1957 79.6594 97.4197C76.0516 98.6438 73.4836 100.098 71.8083 101.838C76.0996 99.3746 78.4597 98.5109 79.8561 98.0301C83.4196 96.821 86.747 95.9797 91.4709 95.0968C92.0379 94.9908 91.5826 94.4132 91.3528 94.4472H91.3532Z" fill="white"/>
<path d="M93.3607 97.7352C85.445 98.9961 80.3153 102.411 77.0549 105.798C82.1078 101.991 85.6228 99.9451 93.4983 98.3846C93.9967 98.2858 93.8462 97.6575 93.3605 97.7349L93.3607 97.7352Z" fill="white"/>
<path d="M97.2179 100.628C89.2563 101.854 84.6649 106.694 82.7529 109.889C87.7902 104.857 91.7105 102.118 97.3554 101.278C97.9267 101.193 97.7809 100.541 97.2176 100.628L97.2179 100.628Z" fill="white"/>
<path d="M99.6206 103.149C98.3789 103.304 96.6892 104.184 95.0928 105.197C93.4963 106.21 92.2918 107.442 91.5735 109.03C93.4965 107.045 94.2663 106.508 95.4471 105.748C96.9798 104.775 98.5244 104.163 99.7781 103.799C100.366 103.628 99.9216 103.112 99.6206 103.149H99.6206Z" fill="white"/>
<path d="M160.686 58.8242C160.686 60.3691 159.434 61.6215 157.889 61.6215C156.344 61.6215 155.092 60.3691 155.092 58.8242C155.092 57.2794 156.344 56.0269 157.889 56.0269C159.434 56.0269 160.686 57.2793 160.686 58.8242Z" fill="white" stroke="white" stroke-width="0.660673"/>
<path d="M160.686 58.8242C160.686 60.3691 159.434 61.6215 157.889 61.6215C156.344 61.6215 155.092 60.3691 155.092 58.8242C155.092 57.2794 156.344 56.0269 157.889 56.0269C159.434 56.0269 160.686 57.2793 160.686 58.8242Z" fill="#37C871" stroke="white" stroke-width="0.660673"/>
</svg>

        </g>
         
        <g transform="translate(600, 0)">
          <svg xmlns="http://www.w3.org/2000/svg" width="256" height="256" fill="none" viewBox="0 0 256 256"><rect width="256" height="256" fill="#009639" rx="60"/><path fill="#fff" d="M195.338 213C190.746 213 186.224 211.213 182.847 207.829L78.3239 103.307V195.34C78.3239 205.095 70.4184 213 60.662 213C50.9126 213 43 205.095 43 195.34V60.6678C43 53.5189 47.3095 47.0834 53.908 44.3496C60.4995 41.6087 68.1012 43.1204 73.1525 48.1784L177.676 152.7V60.6678C177.676 50.9122 185.582 43.0074 195.338 43.0074C205.095 43.0074 213 50.9122 213 60.6678V195.34C213 202.481 208.69 208.924 202.092 211.658C199.909 212.562 197.62 213 195.338 213Z"/></svg>
        </g>
         
        <g transform="translate(900, 0)">
          <svg xmlns="http://www.w3.org/2000/svg" width="256" height="256" fill="none" viewBox="0 0 256 256"><rect width="256" height="256" fill="#242938" rx="60"/><path fill="#81CD39" d="M119.878 31.1164C124.797 28.3008 131.203 28.2883 136.117 31.1164C160.839 45.0855 185.569 59.0332 210.287 73.0108C214.937 75.6296 218.046 80.8038 217.999 86.1608V170.206C218.034 175.785 214.617 181.083 209.712 183.642C185.071 197.535 160.442 211.444 135.805 225.337C130.786 228.207 124.251 227.986 119.387 224.88C112 220.598 104.6 216.336 97.2121 212.058C95.7022 211.158 94.0004 210.442 92.9345 208.978C93.8766 207.708 95.5618 207.55 96.9309 206.995C100.014 206.014 102.847 204.44 105.679 202.913C106.396 202.423 107.27 202.611 107.957 203.049C114.274 206.671 120.536 210.399 126.874 213.986C128.226 214.767 129.595 213.73 130.751 213.086C154.931 199.419 179.141 185.805 203.318 172.134C204.214 171.703 204.709 170.752 204.636 169.771C204.653 142.046 204.64 114.317 204.645 86.5918C204.747 85.4785 204.103 84.455 203.096 83.999C178.541 70.1702 153.997 56.3205 129.446 42.4882C128.575 41.8893 127.426 41.8878 126.554 42.4837C102.002 56.3205 77.4638 70.1832 52.9124 84.011C51.9092 84.4675 51.236 85.4745 51.3554 86.5918C51.3596 114.317 51.3554 142.046 51.3554 169.775C51.2682 170.756 51.801 171.687 52.6906 172.109C59.2422 175.824 65.8024 179.513 72.3582 183.216C76.0516 185.203 80.5863 186.385 84.6555 184.862C88.2463 183.574 90.7633 179.909 90.6948 176.097C90.7288 148.534 90.6778 120.967 90.7203 93.4078C90.6309 92.1841 91.7912 91.1731 92.981 91.2885C96.1292 91.267 99.281 91.2461 102.429 91.297C103.743 91.267 104.647 92.5847 104.485 93.8174C104.472 121.555 104.519 149.293 104.464 177.03C104.472 184.423 101.435 192.467 94.5973 196.084C86.1737 200.447 75.7619 199.522 67.4399 195.338C60.2355 191.742 53.3603 187.498 46.2838 183.646C41.3661 181.101 37.966 175.782 38.0006 170.207V86.1608C37.949 80.6929 41.1825 75.4248 45.9764 72.8445C70.6133 58.9408 95.2461 45.0261 119.878 31.1164Z"/><path fill="#81CD39" d="M141.372 89.3351C152.117 88.6433 163.62 88.9255 173.289 94.2185C180.776 98.2754 184.926 106.789 185.058 115.106C184.849 116.227 183.676 116.846 182.605 116.769C179.488 116.765 176.369 116.812 173.252 116.748C171.929 116.799 171.161 115.58 170.995 114.411C170.099 110.431 167.928 106.49 164.183 104.57C158.433 101.692 151.767 101.837 145.497 101.897C140.92 102.139 135.998 102.536 132.12 105.227C129.143 107.266 128.239 111.382 129.301 114.697C130.303 117.077 133.05 117.845 135.299 118.553C148.248 121.94 161.97 121.602 174.672 126.059C179.931 127.876 185.075 131.409 186.875 136.915C189.23 144.295 188.198 153.115 182.947 159.039C178.689 163.914 172.488 166.568 166.303 168.009C158.075 169.844 149.536 169.891 141.18 169.076C133.323 168.18 125.146 166.116 119.081 160.763C113.894 156.259 111.361 149.241 111.612 142.469C111.672 141.325 112.811 140.527 113.907 140.621C117.046 140.596 120.186 140.587 123.325 140.626C124.58 140.536 125.509 141.62 125.574 142.802C126.152 146.593 127.577 150.573 130.884 152.82C137.264 156.937 145.271 156.655 152.577 156.77C158.63 156.502 165.425 156.421 170.364 152.42C172.97 150.138 173.742 146.32 173.038 143.036C172.275 140.263 169.374 138.971 166.883 138.126C154.1 134.083 140.224 135.55 127.565 130.977C122.425 129.161 117.455 125.727 115.481 120.447C112.726 112.974 113.988 103.73 119.789 98.0061C125.445 92.312 133.609 90.1192 141.372 89.3346V89.3351"/></svg>
        </g>
         
        <g transform="translate(1200, 0)">
          <svg width="256" height="256" viewBox="0 0 256 256" fill="none" xmlns="http://www.w3.org/2000/svg">
<rect width="256" height="256" rx="60" fill="#FF6C37"/>
<path d="M169.061 88.6123L118.521 139.153L104.268 124.901C153.971 75.1986 158.882 79.5101 169.061 88.6123Z" fill="#EEEEEE"/>
<path d="M118.521 140.35C118.161 140.35 117.922 140.231 117.682 139.991L103.31 125.739C102.831 125.26 102.831 124.542 103.31 124.063C153.851 73.5211 159.12 78.3118 169.78 87.8932C170.02 88.1328 170.139 88.3724 170.139 88.7317C170.139 89.0911 170.02 89.3306 169.78 89.5694L119.239 139.991C119.12 140.231 118.76 140.35 118.521 140.35ZM105.945 124.901L118.521 137.476L167.265 88.7317C158.403 80.8266 152.414 78.4316 105.945 124.901Z" fill="#FF6C37"/>
<path d="M133.012 153.645L119.239 139.872L169.78 89.3315C183.314 102.984 163.073 125.141 133.012 153.645Z" fill="#EEEEEE"/>
<path d="M133.012 154.843C132.652 154.843 132.414 154.723 132.174 154.483L118.401 140.71C118.161 140.471 118.161 140.231 118.161 139.872C118.161 139.512 118.281 139.273 118.521 139.033L169.061 88.4927C169.54 88.0135 170.259 88.0135 170.738 88.4927C173.852 91.3668 175.529 95.4387 175.409 99.6305C175.17 112.924 160.079 129.811 133.97 154.483C133.611 154.723 133.251 154.843 133.012 154.843ZM120.916 139.872C128.58 147.656 131.815 150.771 133.012 151.968C153.133 132.806 172.654 113.164 172.774 99.6305C172.894 96.5168 171.697 93.4031 169.66 91.0074L120.916 139.872Z" fill="#FF6C37"/>
<path d="M104.508 125.26L114.688 135.44C114.927 135.68 114.927 135.919 114.688 136.159C114.568 136.279 114.568 136.279 114.449 136.279L93.3693 140.83C92.292 140.95 91.3337 140.231 91.0942 139.153C90.9744 138.554 91.214 137.956 91.5733 137.596L103.789 125.38C104.029 125.14 104.388 125.02 104.508 125.26Z" fill="#EEEEEE"/>
<path d="M93.01 142.028C91.214 142.028 89.8963 140.59 89.8963 138.793C89.8963 137.956 90.2557 137.117 90.8546 136.518L103.07 124.302C103.789 123.703 104.748 123.703 105.466 124.302L115.646 134.482C116.364 135.081 116.364 136.159 115.646 136.877C115.406 137.117 115.167 137.237 114.807 137.357L93.7287 141.908C93.4891 141.908 93.2495 142.028 93.01 142.028ZM104.149 126.577L92.4118 138.314C92.1723 138.554 92.0525 138.913 92.292 139.272C92.4118 139.632 92.7704 139.752 93.1298 139.632L112.891 135.32L104.149 126.577Z" fill="#FF6C37"/>
<path d="M195.769 60.5877C188.104 53.1625 175.768 53.4021 168.342 61.1867C160.917 68.9712 161.157 81.1871 168.941 88.6131C175.289 94.7207 184.871 95.7988 192.416 91.2476L178.762 77.5943L195.769 60.5877Z" fill="#EEEEEE"/>
<path d="M182.355 95.1996C170.978 95.1996 161.756 85.9776 161.756 74.6002C161.756 63.222 170.978 54 182.355 54C187.625 54 192.775 56.0364 196.607 59.749C196.847 59.9886 196.967 60.2281 196.967 60.5875C196.967 60.9469 196.847 61.1864 196.607 61.426L180.439 77.5941L193.134 90.2891C193.614 90.7683 193.614 91.487 193.134 91.9661C193.015 92.0859 193.015 92.0859 192.895 92.2057C189.781 94.1215 186.068 95.1996 182.355 95.1996ZM182.355 56.5155C172.295 56.5155 164.151 64.6595 164.271 74.72C164.271 84.7805 172.414 92.9244 182.475 92.8047C185.23 92.8047 187.984 92.2057 190.499 90.888L177.924 78.4326C177.684 78.193 177.565 77.9534 177.565 77.5941C177.565 77.2347 177.684 76.9951 177.924 76.7556L193.973 60.7073C190.739 57.953 186.667 56.5155 182.355 56.5155Z" fill="#FF6C37"/>
<path d="M196.128 60.9471L195.889 60.7075L178.762 77.5943L192.296 91.1279C193.614 90.2894 194.93 89.3319 196.009 88.2538C203.673 80.708 203.673 68.4921 196.128 60.9471Z" fill="#EEEEEE"/>
<path d="M192.416 92.4448C192.056 92.4448 191.817 92.325 191.577 92.0855L177.924 78.4321C177.684 78.1925 177.565 77.953 177.565 77.5936C177.565 77.2342 177.684 76.9947 177.924 76.7551L194.93 59.7485C195.41 59.2694 196.128 59.2694 196.607 59.7485L196.967 59.9881C204.991 68.0122 204.991 80.9469 197.087 89.0916C195.889 90.2887 194.571 91.3667 193.134 92.2053C192.775 92.325 192.536 92.4448 192.416 92.4448ZM180.439 77.5936L192.536 89.6897C193.494 89.0916 194.452 88.2531 195.17 87.5344C201.997 80.7073 202.356 69.5695 195.769 62.3838L180.439 77.5936Z" fill="#FF6C37"/>
<path d="M171.098 90.7674C168.223 87.8933 163.552 87.8933 160.678 90.7674L115.526 135.919L123.072 143.464L170.858 101.547C173.972 98.9113 174.211 94.2404 171.577 91.1267C171.337 91.007 171.217 90.8872 171.098 90.7674Z" fill="#EEEEEE"/>
<path d="M122.952 144.662C122.593 144.662 122.353 144.542 122.113 144.303L114.568 136.758C114.089 136.279 114.089 135.56 114.568 135.081L159.719 89.929C163.073 86.5758 168.462 86.5758 171.816 89.929C175.17 93.283 175.17 98.6719 171.816 102.026C171.697 102.146 171.577 102.265 171.457 102.385L123.67 144.303C123.551 144.542 123.311 144.662 122.952 144.662ZM117.203 135.919L123.072 141.788L170.02 100.588C172.654 98.4323 172.894 94.4801 170.738 91.8456C168.582 89.2111 164.63 88.9715 161.995 91.1269C161.876 91.2467 161.756 91.3664 161.516 91.4862L117.203 135.919Z" fill="#FF6C37"/>
<path d="M80.9139 187.3C80.4347 187.539 80.1951 188.018 80.3149 188.497L82.3513 197.121C82.8305 198.318 82.1117 199.756 80.7941 200.115C79.8358 200.474 78.7585 200.115 78.1596 199.397L64.9854 186.342L107.981 143.346L122.832 143.585L132.892 153.646C130.497 155.682 116.005 169.694 80.9139 187.3Z" fill="#EEEEEE"/>
<path d="M79.9556 201.311C78.9981 201.311 78.0398 200.952 77.4408 200.234L64.3864 187.179C64.1469 186.94 64.0271 186.7 64.0271 186.341C64.0271 185.982 64.1469 185.742 64.3864 185.502L107.382 142.507C107.622 142.267 107.981 142.147 108.221 142.147L123.072 142.387C123.431 142.387 123.67 142.507 123.909 142.746L133.97 152.806C134.21 153.046 134.329 153.405 134.329 153.764C134.329 154.124 134.21 154.363 133.85 154.603L133.012 155.322C120.317 166.459 103.07 177.598 81.6326 188.257L83.669 196.76C84.0275 198.317 83.3096 199.994 81.8722 200.832C81.1534 201.191 80.5545 201.311 79.9556 201.311ZM66.7814 186.341L79.1178 198.557C79.4764 199.156 80.1951 199.395 80.7941 199.036C81.393 198.677 81.6326 197.958 81.2732 197.359L79.2376 188.736C78.9981 187.658 79.4764 186.7 80.4347 186.221C101.633 175.562 118.76 164.544 131.335 153.645L122.473 144.782L108.7 144.542L66.7814 186.341Z" fill="#FF6C37"/>
<path d="M54.8051 196.641L65.1052 186.341L80.4347 201.671L56.0029 199.995C54.9249 199.875 54.2061 198.917 54.3259 197.838C54.3259 197.359 54.4457 196.88 54.8051 196.641Z" fill="#EEEEEE"/>
<path d="M80.4347 202.749L55.8831 201.072C54.0863 200.952 52.8884 199.396 53.0082 197.599C53.128 196.88 53.3676 196.162 53.9665 195.683L64.2666 185.383C64.7458 184.904 65.4645 184.904 65.9429 185.383L81.2732 200.713C81.6326 201.072 81.7524 201.551 81.5128 202.031C81.2732 202.51 80.9139 202.749 80.4347 202.749ZM65.1051 188.018L55.6435 197.479C55.2842 197.719 55.2842 198.318 55.6435 198.557C55.7633 198.677 55.8831 198.797 56.1227 198.797L77.321 200.234L65.1051 188.018Z" fill="#FF6C37"/>
<path d="M103.789 148.855C103.07 148.855 102.591 148.256 102.591 147.657C102.591 147.298 102.711 147.059 102.951 146.819L114.568 135.202C115.047 134.722 115.766 134.722 116.245 135.202L123.79 142.747C124.149 143.106 124.269 143.465 124.149 143.945C124.029 144.304 123.67 144.663 123.192 144.783L104.029 148.855C103.909 148.855 103.789 148.855 103.789 148.855ZM115.406 137.717L107.502 145.622L120.436 142.866L115.406 137.717Z" fill="#FF6C37"/>
<path d="M122.832 143.584L109.658 146.459C108.7 146.699 107.741 146.1 107.502 145.142C107.382 144.543 107.502 143.944 107.981 143.465L115.286 136.159L122.832 143.584Z" fill="#EEEEEE"/>
<path d="M109.418 147.657C107.741 147.657 106.424 146.34 106.424 144.663C106.424 143.825 106.783 143.106 107.262 142.508L114.568 135.202C115.047 134.722 115.766 134.722 116.245 135.202L123.79 142.747C124.149 143.106 124.269 143.465 124.149 143.945C124.029 144.304 123.67 144.663 123.192 144.783L110.017 147.657C109.778 147.657 109.538 147.657 109.418 147.657ZM115.406 137.717L108.939 144.184C108.7 144.424 108.7 144.663 108.819 144.903C108.939 145.142 109.179 145.262 109.538 145.262L120.556 142.866L115.406 137.717Z" fill="#FF6C37"/>
<path d="M196.248 72.4434C196.009 71.7254 195.17 71.3661 194.451 71.6057C193.733 71.8444 193.374 72.6829 193.614 73.4017C193.614 73.5215 193.733 73.6412 193.733 73.761C194.451 75.1985 194.213 76.9945 193.254 78.3121C192.775 78.9111 192.895 79.7496 193.374 80.2287C193.973 80.7071 194.811 80.5881 195.29 79.9892C197.087 77.7132 197.446 74.8391 196.248 72.4434Z" fill="#FF6C37"/>
</svg>

        </g>
         
        <g transform="translate(1500, 0)">
          <svg width="256" height="256" viewBox="0 0 256 256" fill="none" xmlns="http://www.w3.org/2000/svg">
<rect width="256" height="256" rx="60" fill="#242938"/>
<path d="M90.582 29.0032C89.543 29.0342 88.424 29.4022 87.154 30.3622C84.042 29.2132 81.026 28.8142 78.329 31.1532C74.163 30.6362 72.809 31.7042 71.784 32.9532C70.87 32.9342 64.942 32.0512 62.224 35.9372C55.393 35.1632 53.232 39.7882 55.678 44.0982C54.285 46.1702 52.837 48.2122 56.101 52.1592C54.947 54.3562 55.662 56.7392 58.382 59.6262C57.664 62.7132 59.074 64.8932 61.604 66.5922C61.13 70.8182 65.649 73.2782 66.999 74.1522C67.517 76.6142 68.597 78.9402 73.761 80.2232C74.608 83.8972 77.712 84.5302 80.716 85.2992C70.787 90.8312 62.274 98.1042 62.333 115.955L60.877 118.442C49.491 125.076 39.25 146.395 55.266 163.725C56.314 169.15 58.066 173.045 59.628 177.358C61.966 194.735 77.215 202.871 81.236 203.834C87.131 208.134 93.408 212.214 101.902 215.074C109.909 222.988 118.585 226.003 127.308 226H127.692C136.417 226.004 145.093 222.988 153.098 215.074C161.593 212.216 167.869 208.134 173.764 203.834C177.786 202.871 193.036 194.735 195.371 177.356C196.933 173.045 198.687 169.15 199.735 163.725C215.75 146.395 205.509 125.073 194.122 118.438L192.668 115.954C192.726 98.1042 184.212 90.8272 174.283 85.2982C177.287 84.5282 180.391 83.8922 181.241 80.2222C186.402 78.9372 187.481 76.6132 188 74.1502C189.349 73.2732 193.87 70.8172 193.396 66.5872C195.925 64.8912 197.335 62.7102 196.618 59.6212C199.338 56.7372 200.052 54.3532 198.897 52.1552C202.162 48.2122 200.713 46.1672 199.32 44.0972C201.765 39.7842 199.608 35.1612 192.774 35.9352C190.056 32.0512 184.129 32.9342 183.216 32.9512C182.189 31.7032 180.834 30.6352 176.669 31.1522C173.973 28.8142 170.955 29.2132 167.844 30.3622C164.151 27.5692 161.704 29.8082 158.913 30.6552C154.44 29.2532 153.417 31.1722 151.221 31.9542C146.343 30.9662 144.86 33.1162 142.521 35.3862L139.801 35.3352C132.444 39.4872 128.79 47.9482 127.496 52.2972C126.198 47.9462 122.553 39.4862 115.197 35.3352L112.477 35.3842C110.135 33.1142 108.653 30.9662 103.776 31.9542C101.579 31.1722 100.557 29.2542 96.082 30.6552C94.248 30.0992 92.563 28.9432 90.579 29.0022L90.582 29.0032Z" fill="#050606"/>
<path d="M76.0822 47.2811C95.6012 56.9201 106.946 64.7221 113.164 71.3661C109.981 83.5911 93.3732 84.1481 87.2992 83.8051C88.5442 83.2511 89.5812 82.5861 89.9492 81.5671C88.4252 80.5301 83.0232 81.4581 79.2502 79.4261C80.6992 79.1381 81.3772 78.8581 82.0552 77.8351C78.4902 76.7451 74.6522 75.8061 72.3942 74.0011C73.6132 74.0181 74.7502 74.2641 76.3422 73.2051C73.1492 71.5571 69.7432 70.2521 67.0982 67.7321C68.7442 67.6941 70.5262 67.7151 71.0442 67.1351C68.1222 65.4021 65.6572 63.4721 63.6182 61.3641C65.9282 61.6301 66.9022 61.4011 67.4622 61.0131C65.2522 58.8471 62.4572 57.0171 61.1242 54.3471C62.8392 54.9131 64.4082 55.1301 65.5392 54.2961C64.7872 52.6741 61.5742 51.7171 59.7212 47.9281C61.5272 48.0941 63.4422 48.3051 63.8232 47.9281C62.9872 44.6561 61.5502 42.8161 60.1392 40.9131C64.0022 40.8571 69.8562 40.9251 69.5912 40.6111L67.2012 38.2751C70.9762 37.3001 74.8382 38.4321 77.6422 39.2691C78.9002 38.3181 77.6202 37.1161 76.0852 35.8841C79.2922 36.2951 82.1892 37.0031 84.8072 37.9761C86.2082 36.7651 83.9002 35.5551 82.7832 34.3421C87.7382 35.2441 89.8382 36.5091 91.9232 37.7781C93.4382 36.3861 92.0102 35.2061 90.9902 33.9961C94.7252 35.3211 96.6492 37.0341 98.6772 38.7231C99.3642 37.8331 100.42 37.1821 99.1442 35.0401C101.795 36.5051 103.793 38.2321 105.271 40.1651C106.912 39.1631 106.249 37.7931 106.259 36.5321C109.016 38.6811 110.764 40.9661 112.908 43.2011C113.336 42.9011 113.714 41.8791 114.049 40.2651C120.625 46.3781 129.919 61.7781 116.437 67.8831C104.964 58.8181 91.2612 52.2261 76.0772 47.2811H76.0802H76.0822ZM179.464 47.2811C159.947 56.9221 148.599 64.7201 142.383 71.3661C145.568 83.5911 162.176 84.1481 168.247 83.8051C167.003 83.2511 165.967 82.5861 165.6 81.5671C167.123 80.5301 172.527 81.4581 176.298 79.4261C174.849 79.1381 174.17 78.8581 173.494 77.8351C177.057 76.7451 180.896 75.8061 183.154 74.0011C181.935 74.0181 180.796 74.2641 179.205 73.2051C182.398 71.5571 185.804 70.2521 188.452 67.7321C186.8 67.6941 185.022 67.7151 184.504 67.1351C187.427 65.4021 189.892 63.4721 191.932 61.3641C189.621 61.6301 188.647 61.4011 188.087 61.0131C190.296 58.8471 193.091 57.0171 194.424 54.3471C192.709 54.9131 191.141 55.1301 190.009 54.2961C190.76 52.6741 193.974 51.7171 195.827 47.9281C194.019 48.0941 192.106 48.3051 191.722 47.9281C192.563 44.6561 193.998 42.8151 195.41 40.9111C191.547 40.8561 185.692 40.9231 185.957 40.6111L188.349 38.2751C184.572 37.2991 180.71 38.4301 177.908 39.2671C176.648 38.3161 177.932 37.1141 179.464 35.8831C176.26 36.2941 173.36 37.0021 170.742 37.9751C169.341 36.7631 171.65 35.5541 172.766 34.3411C167.811 35.2431 165.713 36.5081 163.625 37.7741C162.112 36.3851 163.54 35.2041 164.559 33.9951C160.823 35.3201 158.899 37.0331 156.873 38.7191C156.187 37.8311 155.129 37.1801 156.406 35.0361C153.754 36.5031 151.755 38.2281 150.277 40.1631C148.636 39.1611 149.3 37.7911 149.289 36.5311C146.535 38.6791 144.784 40.9661 142.642 43.2001C142.212 42.9001 141.834 41.8781 141.5 40.2631C134.923 46.3761 125.63 61.7761 139.111 67.8821C150.58 58.8121 164.279 52.2231 179.467 47.2801H179.464" fill="#63C54D"/>
<path d="M151.379 171.774C151.447 183.182 141.034 192.48 128.122 192.541C115.209 192.601 104.687 183.402 104.618 171.992V171.774C104.549 160.365 114.962 151.067 127.874 151.007C140.788 150.947 151.31 160.146 151.379 171.555V171.772V171.774ZM114.925 112.763C124.611 118.844 126.357 132.629 118.825 143.552C111.29 154.475 97.3308 158.401 87.6418 152.319C77.9558 146.238 76.2088 132.451 83.7428 121.53C91.2758 110.605 105.236 106.681 114.925 112.763ZM141.072 111.661C131.384 117.744 129.638 131.527 137.172 142.452C144.706 153.373 158.666 157.301 168.352 151.217C178.042 145.136 179.786 131.351 172.253 120.428C164.718 109.507 150.76 105.58 141.072 111.663V111.661ZM67.1049 122.769C77.5629 120.081 70.6349 164.229 62.1268 160.608C52.7638 153.393 49.7478 132.265 67.1028 122.769H67.1049ZM187.978 122.219C177.517 119.534 184.445 163.682 192.957 160.06C202.318 152.844 205.332 131.715 187.978 122.219ZM152.897 89.2812C170.948 86.3602 185.966 96.6342 185.36 115.389C184.766 122.578 146.246 90.3502 152.897 89.2792V89.2812ZM103.025 88.7302C84.9719 85.8092 69.9528 96.0862 70.5598 114.839C71.1538 122.028 109.675 89.7992 103.025 88.7302ZM127.891 84.3562C117.12 84.0882 106.781 92.0192 106.754 96.6152C106.726 102.205 115.272 107.926 127.967 108.072C140.928 108.16 149.199 103.492 149.241 97.7252C149.288 91.1912 137.451 84.2562 127.891 84.3562ZM128.724 198.957C138.117 198.563 150.722 201.855 150.745 206.221C150.902 210.461 139.315 220.041 128.101 219.857C116.488 220.338 105.1 210.742 105.25 207.417C105.075 202.54 119.392 198.734 128.724 198.957ZM93.9638 173.078C100.65 180.798 103.697 194.36 98.1189 198.357C92.8399 201.41 80.0169 200.153 70.9019 187.608C64.7579 177.084 65.5508 166.372 69.8658 163.224C76.3188 159.458 86.2898 164.546 93.9618 173.078H93.9638ZM161.293 170.63C154.056 178.752 150.027 193.561 155.305 198.331C160.351 202.038 173.899 201.519 183.908 188.214C191.175 179.278 188.739 164.357 184.589 160.394C178.423 155.823 169.572 161.672 161.292 170.627V170.63" fill="#C51850"/>
</svg>

        </g>
         
        <g transform="translate(1800, 0)">
          <svg width="256" height="256" viewBox="0 0 256 256" fill="none" xmlns="http://www.w3.org/2000/svg">
<g clip-path="url(#clip0_404_220)">
<rect width="256" height="256" rx="60" fill="#59B943"/>
<path fill-rule="evenodd" clip-rule="evenodd" d="M233.776 -6H256V261H253.934C254.456 261 254.956 260.793 255.326 260.425C255.695 260.057 255.902 259.557 255.902 259.037V33.7359C256.059 33.2777 256.026 32.7762 255.812 32.3417C255.598 31.9073 255.22 31.5755 254.76 31.4193C254.301 31.2631 253.798 31.2953 253.363 31.5088C252.927 31.7224 252.594 32.0997 252.438 32.5579L169.762 125.144C169.526 125.399 169.239 125.602 168.921 125.741C168.603 125.88 168.259 125.951 167.911 125.951C167.564 125.951 167.22 125.88 166.901 125.741C166.583 125.602 166.297 125.399 166.061 125.144L123.857 81.7174C123.499 81.2717 123.304 80.7177 123.304 80.1468C123.304 79.5758 123.499 79.0219 123.857 78.5762L137.793 60.75C138.027 60.4257 138.334 60.1615 138.69 59.9793C139.046 59.7971 139.441 59.702 139.841 59.702C140.241 59.702 140.635 59.7971 140.991 59.9793C141.347 60.1615 141.655 60.4257 141.888 60.75L165.51 86.8218C165.746 87.1025 166.041 87.3282 166.375 87.4831C166.708 87.6379 167.071 87.7182 167.439 87.7182C167.806 87.7182 168.17 87.6379 168.503 87.4831C168.836 87.3282 169.131 87.1025 169.368 86.8218L235.194 -3.17294C235.377 -3.4389 235.485 -3.74892 235.508 -4.07077C235.53 -4.39263 235.465 -4.71458 235.321 -5.00314C235.176 -5.29171 234.956 -5.53636 234.685 -5.71167C234.413 -5.88697 234.1 -5.98653 233.776 -6ZM1.96848 -6H0V-4.03676C0 -4.55745 0.207393 -5.0568 0.576554 -5.42498C0.945715 -5.79316 1.4464 -6 1.96848 -6ZM0 259.037V261H1.96848C1.4464 261 0.945715 260.793 0.576554 260.425C0.207393 260.057 0 259.557 0 259.037ZM168.968 163.04C164.08 162.892 159.315 164.577 155.619 167.761C151.923 170.944 149.568 175.392 149.02 180.222C148.996 180.316 148.994 180.414 149.014 180.508C149.034 180.603 149.076 180.691 149.137 180.767C149.198 180.842 149.275 180.902 149.364 180.943C149.452 180.983 149.549 181.003 149.646 181H188.369C188.458 181 188.547 180.982 188.628 180.946C188.71 180.91 188.783 180.857 188.842 180.791C188.901 180.725 188.946 180.647 188.972 180.562C188.998 180.477 189.006 180.388 188.995 180.3C188.614 175.383 186.298 170.813 182.549 167.581C178.8 164.35 173.92 162.718 168.968 163.04ZM26.1414 216.003C38.5828 226.905 54.7968 232.54 71.3376 231.709H71.2589C101.101 231.709 115.51 216.474 115.51 196.527C115.51 171.51 92.231 165.937 73.8707 161.541C61.9159 158.678 52.0466 156.316 52.0466 149.41C52.0466 142.813 57.7158 138.337 67.7944 138.337C78.7663 138.235 89.4405 141.894 98.0302 148.703C98.2841 148.92 98.5799 149.082 98.8994 149.18C99.2188 149.278 99.555 149.31 99.8872 149.273C100.219 149.236 100.54 149.132 100.831 148.966C101.121 148.801 101.373 148.577 101.573 148.31L111.258 134.882C111.696 134.428 111.941 133.823 111.941 133.193C111.941 132.564 111.696 131.959 111.258 131.505C99.6091 122.062 84.9224 117.152 69.9203 117.684C43.7789 117.684 28.0311 132.919 28.0311 151.216C28.0311 175.818 50.4299 181.123 68.6468 185.437C81.1317 188.394 91.6523 190.885 91.6523 198.805C91.6523 205.087 85.3532 211.055 72.44 211.055C60.1792 211.093 48.3607 206.49 39.3696 198.176C39.0915 198.007 38.7823 197.896 38.4602 197.847C38.1381 197.799 37.8096 197.816 37.4941 197.897C37.1786 197.977 36.8824 198.12 36.623 198.316C36.3636 198.513 36.1463 198.759 35.9838 199.04L26.1414 212.783C25.7483 213.228 25.5315 213.8 25.5315 214.393C25.5315 214.986 25.7483 215.558 26.1414 216.003ZM209.931 194.319C210.038 194.047 210.087 193.756 210.076 193.465L209.997 190.952C209.997 164.173 193.383 145.876 168.895 145.876C163.245 145.778 157.633 146.824 152.398 148.95C147.164 151.076 142.417 154.239 138.443 158.246C134.468 162.254 131.35 167.024 129.276 172.267C127.202 177.51 126.216 183.119 126.376 188.753C126.148 194.526 127.132 200.282 129.264 205.654C131.397 211.025 134.632 215.893 138.761 219.945C142.89 223.997 147.823 227.143 153.243 229.182C158.663 231.222 164.45 232.109 170.234 231.787C181.812 232.078 193.162 228.544 202.517 221.735C202.942 221.395 203.225 220.91 203.313 220.373C203.4 219.836 203.285 219.287 202.989 218.83L195.903 208.542C195.739 208.29 195.523 208.076 195.27 207.913C195.017 207.751 194.732 207.644 194.435 207.599C194.137 207.555 193.833 207.574 193.543 207.655C193.253 207.736 192.984 207.878 192.753 208.071C186.841 212.219 179.823 214.515 172.596 214.668C167.089 215.121 161.61 213.503 157.239 210.132C152.867 206.76 149.919 201.879 148.974 196.449C148.963 196.356 148.971 196.262 148.997 196.172C149.023 196.082 149.066 195.998 149.125 195.925C149.183 195.852 149.256 195.791 149.338 195.746C149.421 195.701 149.511 195.673 149.604 195.664H207.871C208.164 195.675 208.455 195.625 208.728 195.519C209 195.412 209.248 195.25 209.455 195.044C209.662 194.838 209.824 194.591 209.931 194.319Z" fill="white"/>
</g>
<defs>
<clipPath id="clip0_404_220">
<rect width="256" height="256" rx="60" fill="white"/>
</clipPath>
</defs>
</svg>

        </g>
         
        <g transform="translate(2100, 0)">
          <svg xmlns="http://www.w3.org/2000/svg" width="256" height="256" fill="none" viewBox="0 0 256 256"><rect width="256" height="256" fill="#242938" rx="60"/><path fill="#000" d="M17 120H237.641V193.109C237.641 210.289 223.605 223.445 205.285 223.445H49.3555C31.0312 223.445 17 210.289 17 193.109V120Z"/><path fill="#FFB13B" stroke="#000" stroke-width="28.695" d="M61.6328 108.908C54.8086 102.506 43.7422 102.506 36.918 108.908C30.0938 115.307 30.0938 125.682 36.918 132.084C43.7422 138.482 54.8086 138.482 61.6328 132.084H192.848C199.676 138.482 210.738 138.482 217.566 132.084C224.391 125.682 224.391 115.307 217.566 108.908C210.738 102.506 199.676 102.506 192.848 108.908H61.6328Z"/><path fill="#FFB13B" stroke="#000" stroke-width="28.725" d="M89.5898 68.8027C89.5898 59.7481 81.7656 52.4121 72.1133 52.4121C62.457 52.4121 54.6328 59.7481 54.6328 68.8027C54.6328 77.8535 62.457 85.1894 72.1133 85.1894L164.895 172.189C164.895 181.24 172.719 188.576 182.371 188.576C192.023 188.576 199.848 181.24 199.848 172.189C199.848 163.139 192.023 155.803 182.371 155.803L89.5898 68.8027Z"/><path fill="#FFB13B" stroke="#000" stroke-width="28.695" d="M139.602 58.9785C146.426 52.5762 146.426 42.2012 139.602 35.7988C132.773 29.4004 121.707 29.4004 114.883 35.7988C108.059 42.2012 108.059 52.5762 114.883 58.9785L114.883 182.014C108.059 188.412 108.059 198.791 114.883 205.189C121.707 211.592 132.773 211.592 139.602 205.189C146.426 198.791 146.426 188.412 139.602 182.014V58.9785Z"/><path fill="#FFB13B" stroke="#000" stroke-width="28.725" d="M182.371 85.1895C192.023 85.1895 199.848 77.8536 199.848 68.8028C199.848 59.7481 192.023 52.4122 182.371 52.4122C172.719 52.4122 164.895 59.7481 164.895 68.8028L72.1133 155.803C62.457 155.803 54.6328 163.139 54.6328 172.189C54.6328 181.24 62.457 188.576 72.1133 188.576C81.7656 188.576 89.5898 181.24 89.5898 172.189L182.371 85.1895Z"/><path fill="#FFB13B" d="M61.6328 108.908C54.8086 102.506 43.7422 102.506 36.918 108.908C30.0938 115.307 30.0938 125.682 36.918 132.084C43.7422 138.482 54.8086 138.482 61.6328 132.084H192.848C199.676 138.482 210.738 138.482 217.566 132.084C224.391 125.682 224.391 115.307 217.566 108.908C210.738 102.506 199.676 102.506 192.848 108.908H61.6328Z"/><path fill="#FFB13B" d="M89.5898 68.8027C89.5898 59.748 81.7656 52.4121 72.1133 52.4121C62.457 52.4121 54.6328 59.748 54.6328 68.8027C54.6328 77.8535 62.457 85.1895 72.1133 85.1895L164.895 172.189C164.895 181.24 172.719 188.576 182.371 188.576C192.023 188.576 199.848 181.24 199.848 172.189C199.848 163.139 192.023 155.803 182.371 155.803L89.5898 68.8027Z"/><path fill="#FFB13B" d="M139.602 58.9785C146.426 52.5762 146.426 42.2012 139.602 35.7988C132.773 29.4004 121.707 29.4004 114.883 35.7988C108.059 42.2012 108.059 52.5762 114.883 58.9785V182.014C108.059 188.412 108.059 198.791 114.883 205.189C121.707 211.592 132.773 211.592 139.602 205.189C146.426 198.791 146.426 188.412 139.602 182.014V58.9785Z"/><path fill="#FFB13B" d="M182.371 85.1895C192.023 85.1895 199.848 77.8535 199.848 68.8027C199.848 59.748 192.023 52.4121 182.371 52.4121C172.719 52.4121 164.895 59.748 164.895 68.8027L72.1133 155.803C62.457 155.803 54.6328 163.139 54.6328 172.189C54.6328 181.24 62.457 188.576 72.1133 188.576C81.7656 188.576 89.5898 181.24 89.5898 172.189L182.371 85.1895Z"/><path fill="#000" fill-opacity=".9" d="M17 121H237.641V194.109C237.641 211.289 223.605 224.445 205.285 224.445H49.3555C31.0312 224.445 17 211.289 17 194.109V121Z"/><path fill="#fff" d="M50.0273 172.135C44.8516 167.283 41.6484 160.584 41.6484 153.186C41.6484 138.381 54.457 126.377 70.2383 126.377C86.0273 126.377 98.832 138.381 98.832 153.186H82.0859C82.0859 147.053 76.7773 142.084 70.2383 142.084C63.6992 142.084 58.3984 147.053 58.3984 153.186C58.3984 156.248 59.7266 159.025 61.8594 161.025H61.8672C64.0117 163.045 65.7969 163.627 70.2383 164.291C78.1367 165.061 85.2813 167.291 90.457 172.143C95.6328 176.998 98.832 183.697 98.832 191.096C98.832 205.9 86.0273 217.908 70.2383 217.908C54.457 217.908 41.6484 205.9 41.6484 191.096H58.3984C58.3984 197.229 63.6992 202.205 70.2383 202.205C76.7773 202.205 82.0859 197.229 82.0859 191.096C82.0859 188.033 80.7617 185.264 78.625 183.256H78.6172C76.4727 181.244 73.3945 180.553 70.2383 179.998V179.994C62.582 178.893 55.2031 176.99 50.0273 172.135Z"/><path fill="#fff" d="M156.016 126.377L135.789 217.908H119.043L98.832 126.377H115.582L127.434 179.986L139.266 126.377H156.016Z"/><path fill="#fff" d="M184.613 164.291H213.199V191.096H213.207C213.207 205.904 200.402 217.912 184.613 217.912C168.82 217.912 156.023 205.904 156.023 191.096V153.186H156.016C156.016 138.381 168.82 126.381 184.613 126.381C200.395 126.381 213.199 138.381 213.199 153.186H196.453C196.453 147.061 191.145 142.084 184.613 142.084C178.07 142.084 172.77 147.061 172.77 153.186V191.096C172.77 197.229 178.07 202.201 184.613 202.201C191.145 202.201 196.445 197.229 196.453 191.104V180.002H184.613V164.291Z"/></svg>
        </g>
         
        <g transform="translate(2400, 0)">
          <svg width="256" height="256" viewBox="0 0 256 256" fill="none" xmlns="http://www.w3.org/2000/svg">
<rect width="256" height="256" rx="60" fill="#242938"/>
<path d="M124.228 229L90.623 208.89V90.31L40 120.459L40.123 75.545L124.228 26V229ZM131.784 26V229L165.393 208.89V151.781L190.763 166.895L190.612 127.833L165.393 112.988V90.31L216 120.459L215.878 75.545L131.784 26Z" fill="#FF6F00"/>
</svg>

        </g>
         
        <g transform="translate(2700, 0)">
          <svg width="256" height="256" viewBox="0 0 256 256" fill="none" xmlns="http://www.w3.org/2000/svg">
<rect width="256" height="256" rx="60" fill="#242938"/>
<path d="M128 34L223 198.853H33L128 34Z" fill="white"/>
</svg>

        </g>
         
        <g transform="translate(3000, 0)">
          <svg xmlns="http://www.w3.org/2000/svg" width="256" height="256" fill="none" viewBox="0 0 256 256"><rect width="256" height="256" fill="#242938" rx="60"/><path fill="#019833" d="M135.498 39.4619C128.076 32.03 116.032 32.03 108.61 39.462L33.4081 114.765C26.0001 122.183 26.0001 134.199 33.4081 141.617L108.186 216.495C115.608 223.927 127.652 223.927 135.074 216.495L210.276 141.191C217.684 133.773 217.684 121.757 210.276 114.339L135.498 39.4619Z"/><path fill="#fff" d="M161.769 40.7104L159.083 43.3988V53.2693L161.435 55.6235H173.86V65.1606L91.672 148.576V55.7425H105.331L108.133 52.9365V42.9482L105.546 40.9465H33.6672L31.3158 43.3007V53.5048L33.7069 55.8988H46.2085V216.316C46.2085 222.361 50.6553 227.485 56.6396 228.335V228.335C60.4891 228.883 64.3678 227.553 67.0718 224.759L235 51.2474V43.4001L232.315 40.7117L161.769 40.7104Z"/></svg>
        </g>
         
        <g transform="translate(3300, 0)">
          <svg xmlns="http://www.w3.org/2000/svg" width="256" height="256" fill="none" viewBox="0 0 256 256"><rect width="256" height="256" fill="#242938" rx="60"/><path fill="#2489CA" d="M33.7158 100.208C33.7158 100.208 28.9814 96.795 34.6627 92.2381L47.8994 80.402C47.8994 80.402 51.6869 76.4172 55.6915 79.8891L177.84 172.368V216.714C177.84 216.714 177.781 223.678 168.844 222.908L33.7158 100.208Z"/><path fill="#1070B3" d="M65.1997 128.792L33.7157 157.415C33.7157 157.415 30.4805 159.822 33.7157 164.123L48.3333 177.418C48.3333 177.418 51.8052 181.147 56.9341 176.905L90.3119 151.596L65.1997 128.792Z"/><path fill="#0877B9" d="M120.474 129.029L178.215 84.9391L177.84 40.83C177.84 40.83 175.374 31.2033 167.148 36.2139L90.312 106.145L120.474 129.029Z"/><path fill="#3C99D4" d="M168.844 222.968C172.198 226.4 176.262 225.276 176.262 225.276L221.259 203.103C227.019 199.177 226.21 194.305 226.21 194.305V61.8982C226.21 56.0788 220.252 54.0667 220.252 54.0667L181.253 35.267C172.731 30 167.148 36.2139 167.148 36.2139C167.148 36.2139 174.328 31.0455 177.84 40.83V215.905C177.84 217.109 177.583 218.292 177.071 219.358C176.045 221.429 173.816 223.362 168.47 222.553L168.844 222.968Z"/></svg>
        </g>
        
  </svg>
  